<svg width="101" height="80" viewBox="0 0 101 80" fill="none" xmlns="http://www.w3.org/2000/svg">
<mask id="mask0_19_623" style="mask-type:luminance" maskUnits="userSpaceOnUse" x="0" y="0" width="101" height="80">
<path d="M0 0H100.012V80H0V0Z" fill="white"/>
</mask>
<g mask="url(#mask0_19_623)">
<path d="M82.4307 1.17198H88.239C91.6481 1.17198 94.4115 3.38261 94.4115 6.10948V13.7625" stroke="#003DA5" stroke-width="2" stroke-miterlimit="10" stroke-linecap="round" stroke-linejoin="round"/>
<path d="M5.34082 13.7625V6.10948C5.34082 3.38261 8.10442 1.17198 11.5134 1.17198H74.4218" stroke="#003DA5" stroke-width="2" stroke-miterlimit="10" stroke-linecap="round" stroke-linejoin="round"/>
<path d="M74.4218 71.2256H11.5134C8.10442 71.2256 5.34082 69.015 5.34082 66.2881V31.0937" stroke="#003DA5" stroke-width="2" stroke-miterlimit="10" stroke-linecap="round" stroke-linejoin="round"/>
<path d="M94.4121 31.4063V66.3752C94.4121 68.2686 93.0559 69.9086 91.0781 70.7075" stroke="#003DA5" stroke-width="2" stroke-miterlimit="10" stroke-linecap="round" stroke-linejoin="round"/>
<path d="M6.0752 13.7542H93.3857" stroke="#003DA5" stroke-width="2" stroke-miterlimit="10" stroke-linecap="round" stroke-linejoin="round"/>
<path d="M16.133 7.50021C16.133 8.69067 14.9267 9.65552 13.4386 9.65552C11.9503 9.65552 10.7441 8.69067 10.7441 7.50021C10.7441 6.30989 11.9503 5.34489 13.4386 5.34489C14.9267 5.34489 16.133 6.30989 16.133 7.50021Z" stroke="#003DA5" stroke-width="2" stroke-miterlimit="10" stroke-linecap="round" stroke-linejoin="round"/>
<path d="M26.3295 7.49996C26.3295 8.69043 25.1231 9.65527 23.6351 9.65527C22.1468 9.65527 20.9404 8.69043 20.9404 7.49996C20.9404 6.30965 22.1468 5.34465 23.6351 5.34465C25.1231 5.34465 26.3295 6.30965 26.3295 7.49996Z" stroke="#003DA5" stroke-width="2" stroke-miterlimit="10" stroke-linecap="round" stroke-linejoin="round"/>
<path d="M36.5276 7.49996C36.5276 8.69043 35.3212 9.65527 33.8331 9.65527C32.3449 9.65527 31.1387 8.69043 31.1387 7.49996C31.1387 6.30965 32.3449 5.34465 33.8331 5.34465C35.3212 5.34465 36.5276 6.30965 36.5276 7.49996Z" stroke="#003DA5" stroke-width="2" stroke-miterlimit="10" stroke-linecap="round" stroke-linejoin="round"/>
<path d="M9.66657 31.808C5.24614 31.8272 1.46484 29.0247 1.46484 25.4258V24.338H17.6452V25.4258C17.6452 28.9507 14.0731 31.808 9.66657 31.808Z" stroke="#003DA5" stroke-width="2" stroke-miterlimit="10" stroke-linecap="round" stroke-linejoin="round"/>
<path d="M25.8463 31.808C21.4258 31.8272 17.6445 29.0247 17.6445 25.4258V24.338H33.8247V25.4258C33.8247 28.9507 30.2526 31.808 25.8463 31.808Z" stroke="#003DA5" stroke-width="2" stroke-miterlimit="10" stroke-linecap="round" stroke-linejoin="round"/>
<path d="M42.0269 31.808C37.6065 31.8272 33.8252 29.0247 33.8252 25.4258V24.338H50.0056V25.4258C50.0056 28.9507 46.4335 31.808 42.0269 31.808Z" stroke="#003DA5" stroke-width="2" stroke-miterlimit="10" stroke-linecap="round" stroke-linejoin="round"/>
<path d="M58.2074 31.808C53.787 31.8272 50.0059 29.0247 50.0059 25.4258V24.338H66.1861V25.4258C66.1861 28.9507 62.614 31.808 58.2074 31.808Z" stroke="#003DA5" stroke-width="2" stroke-miterlimit="10" stroke-linecap="round" stroke-linejoin="round"/>
<path d="M74.3883 31.808C69.9678 31.8272 66.1865 29.0247 66.1865 25.4258V24.338H82.3669V25.4258C82.3669 28.9507 78.7948 31.808 74.3883 31.808Z" stroke="#003DA5" stroke-width="2" stroke-miterlimit="10" stroke-linecap="round" stroke-linejoin="round"/>
<path d="M90.5687 31.808C86.1483 31.8272 82.3672 29.0247 82.3672 25.4258V24.338H98.5474V25.4258C98.5474 28.9507 94.9753 31.808 90.5687 31.808Z" stroke="#003DA5" stroke-width="2" stroke-miterlimit="10" stroke-linecap="round" stroke-linejoin="round"/>
<path d="M1.47168 24.3401L5.32955 13.7623H20.1727L17.6458 24.3377L1.47168 24.3401Z" stroke="#003DA5" stroke-width="2" stroke-miterlimit="10" stroke-linecap="round" stroke-linejoin="round"/>
<path d="M17.6445 24.3378L20.1714 13.7624H35.0145L33.8251 24.3381L17.6445 24.3378Z" stroke="#003DA5" stroke-width="2" stroke-miterlimit="10" stroke-linecap="round" stroke-linejoin="round"/>
<path d="M33.8252 24.3381L35.0146 13.7622H50.0056V24.3378L33.8252 24.3381Z" stroke="#003DA5" stroke-width="2" stroke-miterlimit="10" stroke-linecap="round" stroke-linejoin="round"/>
<path d="M50.0059 24.3379V13.7624H64.7011L66.187 24.3379H50.0059Z" stroke="#003DA5" stroke-width="2" stroke-miterlimit="10" stroke-linecap="round" stroke-linejoin="round"/>
<path d="M66.1879 24.3378L64.7021 13.7624H79.5453L82.3671 24.3381L66.1879 24.3378Z" stroke="#003DA5" stroke-width="2" stroke-miterlimit="10" stroke-linecap="round" stroke-linejoin="round"/>
<path d="M82.3667 24.3381L79.5449 13.7622H94.388L98.5465 24.3381H82.3667Z" stroke="#003DA5" stroke-width="2" stroke-miterlimit="10" stroke-linecap="round" stroke-linejoin="round"/>
<path d="M15.627 43.2813V39.6875H44.7319V62.9688H15.627V49.375" stroke="#003DA5" stroke-width="2" stroke-miterlimit="10" stroke-linecap="round" stroke-linejoin="round"/>
<path d="M15.627 62.9688L44.7319 39.6875" stroke="#003DA5" stroke-width="2" stroke-miterlimit="10" stroke-linecap="round" stroke-linejoin="round"/>
<path d="M56.0605 42.0312H83.6028" stroke="#003DA5" stroke-width="2" stroke-miterlimit="10" stroke-linecap="round" stroke-linejoin="round"/>
<path d="M56.0605 47.6562H72.8594" stroke="#003DA5" stroke-width="2" stroke-miterlimit="10" stroke-linecap="round" stroke-linejoin="round"/>
<path d="M74.2267 61.5625H56.0605V53.75H83.6028V61.5625H79.8914" stroke="#003DA5" stroke-width="2" stroke-miterlimit="10" stroke-linecap="round" stroke-linejoin="round"/>
<path d="M74.5987 57.7466L74.408 78.8281L81.7968 71.6344L93.3811 72.5359L74.5987 57.7466Z" stroke="#003DA5" stroke-width="2" stroke-miterlimit="10" stroke-linecap="round" stroke-linejoin="round"/>
</g>
</svg>
