<svg width="82" height="82" viewBox="0 0 82 82" fill="none" xmlns="http://www.w3.org/2000/svg">
<path d="M81 41C81 38.4869 80.7642 35.9714 80.2973 33.5292C80.0867 32.4237 79.1186 31.6248 77.9948 31.6248H41.1562C39.8608 31.6248 38.8125 32.6731 38.8125 33.9686V48.0311C38.8125 49.3266 39.8608 50.3748 41.1562 50.3748H60.0573C58.8797 52.7589 57.2567 54.8275 55.3509 56.5678L68.5978 69.8147C76.2198 62.553 81 52.3342 81 41ZM41 19.75C45.5983 19.75 49.9722 21.2103 53.648 23.9752C54.5772 24.6733 55.8888 24.5886 56.7127 23.7577L66.7148 13.7555C67.1795 13.2908 67.4289 12.6522 67.3992 11.9953C67.3695 11.3384 67.0673 10.725 66.5638 10.3016C59.4067 4.30281 50.3269 1 41 1C27.2736 1 15.1472 7.97719 7.97859 18.5706L21.7361 32.3281C25.0183 24.935 32.403 19.75 41 19.75ZM41 81C49.9473 81 58.1864 78 64.8441 73.002L51.3486 59.5066C48.2639 61.2434 44.7383 62.25 41 62.25C32.403 62.25 25.0183 57.065 21.7361 49.6719L7.97859 63.4294C15.1472 74.0228 27.2736 81 41 81ZM20.0912 44.3758C19.9117 43.2697 19.75 42.1558 19.75 41C19.75 39.8442 19.9117 38.7303 20.0912 37.6242L5.38437 22.9173C2.60187 28.3517 1 34.4869 1 41C1 47.5131 2.60188 53.6483 5.38453 59.0825L20.0912 44.3758Z" stroke="#003DA5" stroke-width="2"/>
</svg>
