<svg width="137" height="51" viewBox="0 0 137 51" fill="none" xmlns="http://www.w3.org/2000/svg">
<path d="M71.2562 15.4405V12.8224H78.8331V49.6044H74.5019C73.6445 49.6059 72.8215 49.2559 72.2132 48.631C71.6048 48.0062 71.2607 47.1574 71.2562 46.2706C68.0936 48.6653 64.2745 49.9593 60.355 49.9535C55.4577 49.9535 50.7609 47.942 47.2969 44.3614C43.833 40.7807 41.8855 35.9238 41.8825 30.8585C41.8855 25.7931 43.833 20.9362 47.2969 17.3556C50.7609 13.7749 55.4577 11.7635 60.355 11.7635C64.2726 11.7589 68.0951 13.047 71.2562 15.4405ZM39.9194 1V2.19271C39.9194 4.41522 39.6325 6.23047 38.2319 8.35989L38.0631 8.5577C37.5965 9.09897 37.1426 9.65185 36.7019 10.2159L12.385 41.7848H39.9194V46.2531C39.9194 46.6937 39.8354 47.13 39.6722 47.5369C39.509 47.9439 39.2699 48.3136 38.9684 48.6249C38.667 48.9361 38.3091 49.1829 37.9154 49.3509C37.5216 49.519 37.0997 49.6051 36.6737 49.6044H1V47.4982C1 44.9208 1.61875 43.7688 2.40625 42.5703L28.3206 9.37805H2.08V1H39.9194ZM88.0187 49.6044C87.3027 49.6044 86.6159 49.3101 86.1096 48.7864C85.6032 48.2627 85.3187 47.5523 85.3187 46.8117V1H93.4244V49.6044H88.0187ZM117.398 11.5308C119.84 11.53 122.259 12.0268 124.515 12.9927C126.772 13.9586 128.822 15.3748 130.549 17.1603C132.277 18.9459 133.647 21.0659 134.582 23.3992C135.518 25.7326 135.999 28.2336 136 30.7596C136.001 33.2855 135.52 35.7868 134.587 38.1208C133.653 40.4547 132.284 42.5756 130.557 44.3622C128.831 46.1488 126.781 47.5663 124.525 48.5336C122.269 49.501 119.851 49.9992 117.409 50C112.477 50.0015 107.747 47.9765 104.258 44.3704C100.77 40.7643 98.809 35.8725 98.8075 30.7712C98.806 25.6699 100.764 20.7768 104.25 17.1686C107.737 13.5603 112.466 11.5323 117.398 11.5308ZM60.3606 42.0932C61.8082 42.1273 63.2478 41.8618 64.5947 41.3124C65.9417 40.7629 67.169 39.9406 68.2044 38.8937C69.2399 37.8468 70.0626 36.5965 70.6243 35.2161C71.186 33.8358 71.4753 32.3532 71.4753 30.8556C71.4753 29.3579 71.186 27.8753 70.6243 26.495C70.0626 25.1146 69.2399 23.8643 68.2044 22.8174C67.169 21.7705 65.9417 20.9482 64.5947 20.3987C63.2478 19.8493 61.8082 19.5838 60.3606 19.6179C57.5219 19.6847 54.8213 20.898 52.8364 22.9982C50.8516 25.0984 49.7403 27.9187 49.7403 30.8556C49.7403 33.7925 50.8516 36.6127 52.8364 38.7129C54.8213 40.8131 57.5219 42.0264 60.3606 42.0932ZM117.398 42.0758C120.3 42.0758 123.083 40.8835 125.134 38.7613C127.186 36.6391 128.339 33.7608 128.339 30.7596C128.339 27.7583 127.186 24.88 125.134 22.7578C123.083 20.6356 120.3 19.4434 117.398 19.4434C114.496 19.4434 111.714 20.6356 109.662 22.7578C107.61 24.88 106.457 27.7583 106.457 30.7596C106.457 33.7608 107.61 36.6391 109.662 38.7613C111.714 40.8835 114.496 42.0758 117.398 42.0758Z" stroke="#003DA5" stroke-width="2"/>
</svg>
