<svg width="102" height="82" viewBox="0 0 102 82" fill="none" xmlns="http://www.w3.org/2000/svg">
<path d="M10.8633 55.8684C10.0543 55.8684 9.39844 56.5126 9.39844 57.3073C9.39844 58.1019 10.0543 58.7461 10.8633 58.7461H23.6566C24.4656 58.7461 25.1215 58.1019 25.1215 57.3073C25.1215 56.5126 24.4656 55.8684 23.6566 55.8684H10.8633Z" fill="#003DA5" stroke="white" stroke-width="0.9"/>
<path d="M99.3564 66.3961L93.1885 60.3378L93.1898 11.6534C93.1898 10.3312 92.0947 9.25528 90.7484 9.25528L76.6486 9.25432C71.0975 4.03535 63.2979 0.974453 55.5408 1.00016C47.3853 1.00016 39.9629 4.13952 34.4581 9.25144L20.831 9.2501C20.022 9.2501 19.3659 9.89413 19.3659 10.6888C19.3659 11.4836 20.0216 12.1276 20.8306 12.1278L31.7357 12.1289C30.9265 13.1033 30.1785 14.1284 29.4962 15.1979L3.93093 15.1964V12.1272L13.9945 12.1278C14.8035 12.1278 15.4593 11.4838 15.4593 10.6889C15.4593 9.89413 14.8037 9.2501 13.9945 9.2501L3.44244 9.24953C2.09612 9.24953 1.00098 10.3252 1.00098 11.6476L1 65.36C1 66.6824 2.09514 67.758 3.44147 67.758L23.2912 67.7594C24.1002 67.7594 24.7561 67.1154 24.7561 66.3205C24.7561 65.5257 24.1004 64.8817 23.2912 64.8817L3.92976 64.8804L3.93093 18.074L27.8741 18.0756C26.9331 19.9866 26.193 22.0096 25.6774 24.1176H10.9612C10.1522 24.1176 9.49631 24.7618 9.49631 25.5564V37.0672C9.49631 37.8618 10.1522 38.506 10.9612 38.506H25.7498C26.0946 39.8551 26.5319 41.1682 27.055 42.4388H10.8635C10.0545 42.4388 9.39865 43.083 9.39865 43.8777C9.39865 44.6723 10.0545 45.3165 10.8635 45.3165H28.4241C29.1531 46.6587 29.981 47.9413 30.9006 49.1534H10.8635C10.0545 49.1534 9.39865 49.7976 9.39865 50.5923C9.39865 51.3869 10.0545 52.0311 10.8635 52.0311H33.3807C38.9742 57.7604 46.8406 61.3329 55.541 61.3329C60.913 61.3329 66.1126 59.9683 70.692 57.4133L73.621 60.2903C74.1684 60.828 74.8876 61.097 75.6068 61.097C76.2486 61.097 76.8894 60.8813 77.4091 60.4531L81.9216 64.8855L30.1273 64.8819C29.3183 64.8819 28.6624 65.5259 28.6624 66.3207C28.6624 67.1156 29.3181 67.7596 30.1273 67.7596L36.5193 67.76L35.2348 72.3623L32.702 72.3618C29.0605 72.3618 26.0981 75.2715 26.0981 78.8481V79.5556C26.0981 80.3502 26.7538 80.9944 27.5628 80.9944L66.6257 81H66.6259C67.0144 81 67.3868 80.8484 67.6616 80.5787C67.9365 80.3088 68.0908 79.9429 68.0908 79.5612V78.8536C68.0908 75.2771 65.1284 72.3673 61.4871 72.3673L58.9544 72.3668L57.669 67.7613L84.8517 67.7632L91.4081 74.2033C92.4699 75.246 93.8812 75.8202 95.3823 75.8202C96.8835 75.8202 98.2948 75.246 99.3566 74.2033C101.548 72.0508 101.548 68.5486 99.3564 66.3961ZM65.0848 78.1221L29.1034 78.117C29.4486 76.4765 30.9306 75.2395 32.7014 75.2395L61.4865 75.245C63.2574 75.245 64.7397 76.4818 65.0848 78.1221ZM55.916 72.3664L38.2724 72.3629L39.557 67.7602L54.6308 67.7613L55.916 72.3664ZM90.2601 15.2019L81.5991 15.2013C80.9217 14.136 80.1772 13.1104 79.367 12.1322L90.2601 12.133V15.2019ZM12.4261 35.6285V26.9954H25.1237C24.9307 28.3595 24.8287 29.7515 24.8287 31.1667C24.8287 32.6825 24.9444 34.1722 25.1653 35.6285H12.4261ZM27.7585 31.1667C27.7585 16.1197 40.2217 3.87804 55.541 3.87804C69.33 3.87804 80.8749 13.5747 82.9917 26.9346C83.1161 27.7199 83.8652 28.258 84.6644 28.135C85.4638 28.0128 86.0111 27.2773 85.8865 26.492C85.4215 23.5572 84.5134 20.7246 83.2144 18.0792L90.2599 18.0798L90.2589 57.4605L85.3578 52.6464C85.782 52.1506 86.0143 51.531 86.0143 50.8758C86.0143 50.1391 85.7221 49.4464 85.1918 48.9253L82.264 46.0496C84.4781 42.2215 85.8226 37.9368 86.1656 33.4626C86.2264 32.6702 85.6217 31.9794 84.8148 31.9197C84.0083 31.8616 83.305 32.454 83.2441 33.2465C82.1602 47.3823 69.9916 58.4553 55.541 58.4553C40.2217 58.4555 27.7585 46.2138 27.7585 31.1667ZM73.2256 55.8323C74.3581 55.0473 75.4431 54.1842 76.471 53.2436C78.0412 51.8068 79.4395 50.2291 80.6545 48.5386L83.0341 50.8758L75.6068 58.1711L73.2256 55.8323ZM97.2848 72.1684C96.7766 72.6676 96.1008 72.9425 95.3823 72.9425C94.6637 72.9425 93.9879 72.6676 93.4797 72.1684L79.4895 58.4269L83.2945 54.6893L97.2847 68.4308C98.3337 69.4614 98.3337 71.138 97.2848 72.1684Z" fill="#003DA5" stroke="white" stroke-width="0.9"/>
<path d="M55.5414 6.74585C41.8321 6.74585 30.6787 17.701 30.6787 31.1667C30.6787 38.9441 34.5036 46.3259 40.91 50.9129C41.5637 51.3812 42.4802 51.2399 42.9568 50.5977C43.4333 49.9556 43.2898 49.0555 42.6358 48.5874C36.9834 44.54 33.6085 38.0274 33.6085 31.1665C33.6085 19.2876 43.4476 9.62334 55.5414 9.62334C67.6353 9.62334 77.4744 19.2876 77.4744 31.1665C77.4744 43.0454 67.6353 52.7096 55.5414 52.7096C53.0506 52.7096 50.6073 52.3031 48.2797 51.5013C47.516 51.2379 46.6803 51.6331 46.4127 52.3829C46.1449 53.1328 46.5469 53.9537 47.3102 54.2167C49.9501 55.1263 52.7193 55.5873 55.5414 55.5873C69.2508 55.5873 80.4042 44.6321 80.4042 31.1665C80.4042 17.7008 69.251 6.74585 55.5414 6.74585Z" fill="#003DA5" stroke="white" stroke-width="0.9"/>
<path d="M56.2369 27.45C57.0459 27.45 57.7018 26.8057 57.7018 26.0111C57.7018 25.2165 57.0459 24.5723 56.2369 24.5723H51.8135C51.0045 24.5723 50.3486 25.2165 50.3486 26.0111V36.3222C50.3486 37.1169 51.0045 37.7611 51.8135 37.7611H56.2369C57.0459 37.7611 57.7018 37.1169 57.7018 36.3222C57.7018 35.5276 57.0459 34.8834 56.2369 34.8834H53.2784V32.6056H55.9107C56.7197 32.6056 57.3756 31.9614 57.3756 31.1668C57.3756 30.3721 56.7197 29.7279 55.9107 29.7279H53.2784V27.45H56.2369Z" fill="#003DA5" stroke="white" stroke-width="0.9"/>
<path d="M42.1999 34.9309C41.186 34.9309 40.2115 34.5309 39.5934 33.8609C39.0502 33.2724 38.1238 33.2275 37.5242 33.761C36.9245 34.2945 36.8792 35.2044 37.4224 35.7934C38.6041 37.074 40.3453 37.8085 42.1997 37.8085C44.5005 37.8085 46.4336 36.3613 46.7961 34.3672C47.0697 32.8612 46.381 30.8965 43.6265 29.8987C42.7415 29.5822 41.2899 29.0623 40.7381 28.7576C40.5838 28.6752 40.517 28.5271 40.5391 28.3174C40.5698 28.0269 40.7901 27.6609 41.317 27.5049C42.7343 27.0859 44.0614 28.109 44.1032 28.1418C44.7226 28.6456 45.6406 28.5652 46.1588 27.9592C46.6793 27.351 46.5992 26.4434 45.9799 25.932C45.8775 25.8475 43.438 23.8717 40.4719 24.7494C38.9025 25.2137 37.7851 26.4979 37.6246 28.0212C37.4802 29.3921 38.1361 30.6427 39.3367 31.2848C39.9403 31.6267 41.3245 32.142 42.6124 32.5986C42.9489 32.7204 44.037 33.1718 43.9116 33.8615C43.8167 34.3872 43.1501 34.9309 42.1999 34.9309Z" fill="#003DA5" stroke="white" stroke-width="0.9"/>
<path d="M74.4851 31.1668C74.4851 27.5045 71.4516 24.5249 67.723 24.5249C63.9944 24.5249 60.9609 27.5045 60.9609 31.1668C60.9609 34.8291 63.9944 37.8087 67.723 37.8087C71.4516 37.8087 74.4851 34.8291 74.4851 31.1668ZM63.8907 31.1668C63.8907 29.0912 65.6099 27.4026 67.723 27.4026C69.8362 27.4026 71.5553 29.0912 71.5553 31.1668C71.5553 33.2424 69.8362 34.931 67.723 34.931C65.6099 34.931 63.8907 33.2424 63.8907 31.1668Z" fill="#003DA5" stroke="white" stroke-width="0.9"/>
</svg>
