<svg width="82" height="82" viewBox="0 0 82 82" fill="none" xmlns="http://www.w3.org/2000/svg">
<path d="M16.4951 25.7102C13.5654 25.7102 11.1826 28.0936 11.1826 31.0227C11.1826 33.9524 13.5654 36.3352 16.4951 36.3352C19.4242 36.3352 21.8076 33.9524 21.8076 31.0227C21.8076 28.0936 19.4242 25.7102 16.4951 25.7102ZM16.4951 33.2102C15.2884 33.2102 14.3076 32.2294 14.3076 31.0227C14.3076 29.8166 15.2884 28.8352 16.4951 28.8352C17.7011 28.8352 18.6826 29.8166 18.6826 31.0227C18.6826 32.2294 17.7011 33.2102 16.4951 33.2102ZM30.9237 25.7102C27.9946 25.7102 25.6112 28.0936 25.6112 31.0227C25.6112 33.9524 27.9946 36.3352 30.9237 36.3352C33.8534 36.3352 36.2362 33.9524 36.2362 31.0227C36.2362 28.0936 33.8534 25.7102 30.9237 25.7102ZM30.9237 33.2102C29.7178 33.2102 28.7362 32.2294 28.7362 31.0227C28.7362 29.8166 29.7178 28.8352 30.9237 28.8352C32.1304 28.8352 33.1112 29.8166 33.1112 31.0227C33.1112 32.2294 32.1304 33.2102 30.9237 33.2102ZM45.1779 25.7102C42.2489 25.7102 39.8654 28.0936 39.8654 31.0227C39.8654 33.9524 42.2489 36.3352 45.1779 36.3352C48.107 36.3352 50.4904 33.9524 50.4904 31.0227C50.4904 28.0936 48.107 25.7102 45.1779 25.7102ZM45.1779 33.2102C43.9718 33.2102 42.9904 32.2294 42.9904 31.0227C42.9904 29.8166 43.9718 28.8352 45.1779 28.8352C46.384 28.8352 47.3654 29.8166 47.3654 31.0227C47.3654 32.2294 46.384 33.2102 45.1779 33.2102ZM71.1154 29.4411C70.7012 29.4417 70.304 29.6063 70.0107 29.899C69.7188 30.1926 69.5543 30.5895 69.5529 31.0036C69.5529 31.4146 69.7201 31.818 70.0107 32.1085C70.3014 32.3991 70.7047 32.5663 71.1154 32.5663C71.5262 32.5663 71.9295 32.3991 72.2201 32.1085C72.512 31.8148 72.6765 31.4179 72.6779 31.0038C72.6779 30.5913 72.5107 30.1896 72.2201 29.8991C71.9269 29.6065 71.5297 29.4417 71.1154 29.4411ZM64.8654 29.4407H56.7404C55.8775 29.4407 55.1779 30.1402 55.1779 31.0032C55.1779 31.8661 55.8775 32.5657 56.7404 32.5657H64.8654C65.7284 32.5657 66.4279 31.8661 66.4279 31.0032C66.4279 30.1402 65.7284 29.4407 64.8654 29.4407ZM16.1936 68.4708C16.6043 68.4708 17.0076 68.3036 17.2982 68.013C17.5889 67.7224 17.7561 67.3191 17.7561 66.9083C17.7561 66.4975 17.5889 66.0943 17.2982 65.8036C17.0076 65.513 16.6043 65.3458 16.1936 65.3458C15.7828 65.3458 15.3795 65.513 15.0889 65.8036C14.7982 66.0943 14.6311 66.4975 14.6311 66.9083C14.6311 67.3191 14.7982 67.7224 15.0889 68.013C15.3826 68.3049 15.7795 68.4694 16.1936 68.4708ZM46.9236 69.8771C51.0184 69.8771 54.349 66.5458 54.349 62.4516V61.6775C54.349 57.5833 51.0184 54.2521 46.9236 54.2521H44.3753C43.5123 54.2521 42.8128 54.9521 42.8128 55.8146V68.3146C42.8128 69.1775 43.5123 69.8771 44.3753 69.8771H46.9236ZM45.9378 57.3771H46.9236C49.2954 57.3771 51.224 59.3065 51.224 61.6775V62.4516C51.224 64.8227 49.2954 66.7521 46.9236 66.7521H45.9378V57.3771ZM30.925 68.8127L31.1276 68.2102H36.1721L36.3748 68.8125C36.4791 69.1228 36.678 69.3924 36.9437 69.5835C37.2094 69.7746 37.5283 69.8775 37.8556 69.8777C38.0209 69.8777 38.1889 69.8508 38.3542 69.7954C38.5487 69.7299 38.7284 69.6268 38.8831 69.492C39.0377 69.3571 39.1643 69.1931 39.2556 69.0092C39.3469 68.8254 39.401 68.6255 39.415 68.4207C39.429 68.216 39.4024 68.0105 39.337 67.816L35.1309 55.316C35.0264 55.006 34.8272 54.7367 34.5615 54.5459C34.2958 54.3551 33.977 54.2525 33.6499 54.2525C33.3228 54.2525 33.0039 54.3551 32.7382 54.5459C32.4725 54.7367 32.2734 55.006 32.1689 55.316L27.9636 67.816C27.8981 68.0105 27.8716 68.216 27.8856 68.4207C27.8995 68.6255 27.9537 68.8254 28.045 69.0092C28.1362 69.1931 28.2628 69.3571 28.4175 69.492C28.5721 69.6268 28.7519 69.7299 28.9464 69.7954C29.7636 70.0711 30.6498 69.6307 30.925 68.8127ZM33.6503 60.7138L35.1206 65.0852H32.1793L33.6503 60.7138Z" fill="#003DA5" stroke="white"/>
<path d="M74.4375 15.6973H73.8906V6.625C73.8906 5.76203 73.1911 5.0625 72.3281 5.0625H67.6406V2.5625C67.6406 1.69953 66.9411 1 66.0781 1H16.0781C15.2152 1 14.5156 1.69953 14.5156 2.5625V5.0625H9.82812C8.96516 5.0625 8.26562 5.76203 8.26562 6.625V15.6973H7.5625C3.94375 15.6973 1 18.6411 1 22.2598V49.75C1 53.3688 3.94375 56.3125 7.5625 56.3125H14.5156V60.6875C14.5156 61.5505 15.2152 62.25 16.0781 62.25C16.9411 62.25 17.6406 61.5505 17.6406 60.6875V47.5625H64.5156V77.875H17.6406V73.1875C17.6406 72.3245 16.9411 71.625 16.0781 71.625C15.2152 71.625 14.5156 72.3245 14.5156 73.1875V79.4375C14.5156 80.3005 15.2152 81 16.0781 81H66.0781C66.9411 81 67.6406 80.3005 67.6406 79.4375V56.3125H74.4375C78.0563 56.3125 81 53.3688 81 49.75V22.2597C81 18.6416 78.0563 15.6972 74.4375 15.6972V15.6973ZM70.7656 8.1875V15.6973H67.6406V8.1875H70.7656ZM17.6406 4.125H64.5156V15.6973H17.6406V4.125ZM11.3906 8.1875H14.5156V15.6973H11.3906V8.1875ZM14.5156 53.1875H11.3906V47.5625H14.5156V53.1875ZM67.6406 47.5625H70.7656V53.1875H67.6406V47.5625ZM77.875 49.75C77.875 51.6458 76.3333 53.1875 74.4375 53.1875H73.8906V46C73.8906 45.137 73.1911 44.4375 72.3281 44.4375H9.82812C8.96516 44.4375 8.26562 45.137 8.26562 46V53.1875H7.5625C5.66672 53.1875 4.125 51.6458 4.125 49.75V22.2597C4.125 20.3647 5.66672 18.8222 7.5625 18.8222H74.4375C76.3333 18.8222 77.875 20.3647 77.875 22.2597V49.75Z" fill="#003DA5" stroke="white"/>
</svg>
