<svg width="54" height="82" viewBox="0 0 54 82" fill="none" xmlns="http://www.w3.org/2000/svg">
<path fill-rule="evenodd" clip-rule="evenodd" d="M49.4218 64.4042C46.9094 57.0518 34.7265 22.7191 32.0857 14.8099C30.7249 10.7288 29.2982 5.63091 28.0297 1H12.8731C13.0939 7.98663 13.1631 11.5179 12.341 14.826C10.8913 20.6279 6.18616 26.715 2.9341 31.4242C1.81384 33.0391 6.37232 37.4055 11.1993 32.2454C12.9489 30.3682 15.7133 26.669 17.9621 24.2696C18.9769 23.1746 20.2916 22.6592 21.6293 22.9353C23.486 23.3034 24.7595 24.4697 26.061 26.5977C27.3789 28.7533 28.6227 31.6726 30.3196 35.4638C33.5222 42.6184 37.1236 50.7116 40.9786 59.0739C42.9423 63.3298 45.5585 65.1127 49.1384 64.9954C49.4844 64.9839 49.5338 64.7193 49.4218 64.4042ZM1 73.6154V73.827C1.02306 77.6758 3.57825 81 6.65733 81H47.2405C50.397 81 52.9786 77.6597 53 73.8109V73.6131L1 73.6154Z" stroke="#003DA5" stroke-width="2"/>
</svg>
