<svg width="96" height="86" viewBox="0 0 96 86" fill="none" xmlns="http://www.w3.org/2000/svg">
<path d="M94 26.6C94 26.1749 93.8938 25.7392 93.7154 25.3777L84.4241 6.53278C83.0455 3.73694 80.2742 2 77.1919 2H18.8081C15.7258 2 12.9545 3.73694 11.5757 6.53278L2.28445 25.3777C2.09919 25.7579 2.00191 26.1759 2 26.6C2 26.6189 2.00234 26.7104 2.00323 26.7294C2.04402 31.1381 4.1514 35.0542 7.39062 37.5259V75.8C7.39062 80.3215 11.018 84 15.4766 84H80.5234C84.982 84 88.6094 80.3215 88.6094 75.8V37.5259C91.9392 34.9851 94 30.9799 94 26.6ZM80.5234 34.8C77.0097 34.8 74.0137 32.5146 72.9011 29.3333H88.1458C87.0332 32.5146 84.0372 34.8 80.5234 34.8ZM7.85422 29.3333H23.0987C21.9861 32.5146 18.9902 34.8 15.4764 34.8C11.9626 34.8 8.96684 32.5146 7.85422 29.3333ZM79.6027 8.97765L86.9435 23.8667H71.6668L67.6238 7.46667H77.1919C77.6928 7.46492 78.1842 7.60556 78.6103 7.87263C79.0364 8.1397 79.3802 8.52251 79.6027 8.97765ZM66.1105 23.8667H50.6953V7.46667H62.0674L66.1105 23.8667ZM66.5833 29.3333C65.4707 32.5146 62.4747 34.8 58.9609 34.8C55.4412 34.8 52.3517 32.4821 51.188 29.3333H66.5833ZM45.3047 7.46667V23.8667H29.71L33.7529 7.46667H45.3047ZM44.812 29.3333C43.6483 32.4821 40.5588 34.8 37.0391 34.8C33.5253 34.8 30.5293 32.5146 29.4167 29.3333H44.812ZM16.3975 8.97765C16.6199 8.52252 16.9637 8.13972 17.3898 7.87265C17.8159 7.60558 18.3072 7.46494 18.8081 7.46667H28.1963L24.1533 23.8667H9.05651L16.3975 8.97765ZM83.2188 75.8C83.2188 77.3072 82.0096 78.5333 80.5234 78.5333H15.4766C13.9904 78.5333 12.7812 77.3072 12.7812 75.8V39.9917C13.6683 40.1749 14.5713 40.267 15.4766 40.2667C19.8803 40.2667 23.797 38.1132 26.2578 34.7905C28.7186 38.1132 32.6353 40.2667 37.0391 40.2667C40.6382 40.2667 44.0467 38.8528 46.6365 36.2857C47.1288 35.798 47.5845 35.2738 48 34.7175C48.4156 35.2738 48.8713 35.798 49.3635 36.2858C51.9533 38.8528 55.3618 40.2667 58.9609 40.2667C63.3647 40.2667 67.2815 38.1132 69.7422 34.7905C72.2028 38.1132 76.1197 40.2667 80.5234 40.2667C81.4463 40.2667 82.3476 40.1717 83.2188 39.9917V75.8Z" fill="#003DA5" stroke="white" stroke-width="3.4"/>
<path d="M74.9531 56.6667H66.8672C65.3787 56.6667 64.1719 57.8905 64.1719 59.4001C64.1719 60.9096 65.3787 62.1334 66.8672 62.1334H71.7942C70.6816 65.3146 67.6857 67.6001 64.1719 67.6001C59.7133 67.6001 56.0859 63.9215 56.0859 59.4001C56.0859 54.8786 59.7133 51.2001 64.1719 51.2001C66.3317 51.2001 68.3622 52.053 69.8895 53.6019C70.942 54.6692 72.6486 54.6692 73.7012 53.6019C74.7538 52.5345 74.7537 50.8039 73.7012 49.7365C71.1558 47.1549 67.7716 45.7334 64.1719 45.7334C56.7409 45.7334 50.6953 51.8643 50.6953 59.4001C50.6953 66.9359 56.7409 73.0667 64.1719 73.0667C71.6029 73.0667 77.6484 66.9359 77.6484 59.4001C77.6484 57.8905 76.4417 56.6667 74.9531 56.6667Z" fill="#003DA5" stroke="white" stroke-width="3.4"/>
</svg>
