<svg width="85" height="90" viewBox="0 0 85 90" fill="none" xmlns="http://www.w3.org/2000/svg">
<path d="M60.3405 54.0125L56.8947 51.443C57.0599 50.655 57.1465 49.8383 57.1465 49.0009C57.1465 48.1635 57.0599 47.3468 56.8947 46.5574L60.3405 43.9878C60.9557 43.53 61.129 42.6859 60.7451 42.0227L59.0236 39.053C58.6397 38.3896 57.8181 38.1184 57.1123 38.4199L53.1518 40.1083C51.934 39.0229 50.4932 38.1828 48.9065 37.6635L48.3946 33.407C48.3038 32.6477 47.6556 32.075 46.8878 32.075H43.4435C42.6755 32.075 42.0288 32.6478 41.9367 33.407L41.4262 37.6635C39.8381 38.1829 38.3974 39.0229 37.1795 40.1083L33.2205 38.4199C32.5131 38.1184 31.693 38.3898 31.3091 39.053L29.5862 42.0227C29.2023 42.6861 29.3757 43.5302 29.9908 43.9878L33.4379 46.5574C33.2727 47.3468 33.186 48.1635 33.186 49.0009C33.186 49.8383 33.2727 50.655 33.4379 51.443L29.9908 54.0125C29.3756 54.4716 29.2023 55.3157 29.5862 55.9776L31.3091 58.9486C31.693 59.6105 32.5131 59.8832 33.2205 59.5817L37.1795 57.8933C38.3973 58.9787 39.8381 59.8188 41.4262 60.3381L41.9367 64.5946C42.029 65.3538 42.6757 65.9254 43.4435 65.9254H46.8878C47.6558 65.9254 48.3038 65.3539 48.3946 64.5946L48.9065 60.3381C50.4932 59.8187 51.934 58.9787 53.1518 57.8933L57.1123 59.5817C57.8183 59.8832 58.6397 59.6105 59.0236 58.9486L60.7451 55.9776C61.1291 55.3159 60.9557 54.4716 60.3405 54.0125ZM45.1662 55.2185C41.7176 55.2185 38.9227 52.4337 38.9227 49.0009C38.9227 45.5666 41.7176 42.7833 45.1662 42.7833C48.6133 42.7833 51.4082 45.5666 51.4082 49.0009C51.4082 52.4339 48.6133 55.2185 45.1662 55.2185Z" stroke="#003DA5" stroke-width="2" stroke-miterlimit="10" stroke-linecap="round" stroke-linejoin="round"/>
<path d="M30.6554 78.0003H3.79408C2.25145 78.0003 1.00098 76.755 1.00098 75.2188V69.7815C1.00098 68.2453 2.25145 67 3.79408 67H30.6554C32.1981 67 33.4485 68.2453 33.4485 69.7815V75.2188C33.4485 76.755 32.1981 78.0003 30.6554 78.0003Z" stroke="#003DA5" stroke-width="2" stroke-miterlimit="10" stroke-linecap="round" stroke-linejoin="round"/>
<path d="M23.9737 89H30.6549C32.1974 89 33.4479 87.7547 33.4479 86.2186V80.7823C33.4479 79.2463 32.1974 78.001 30.6549 78.001H3.79294C2.25047 78.001 1 79.2463 1 80.7823V86.2186C1 87.7547 2.25047 89 3.79294 89H18.1997" stroke="#003DA5" stroke-width="2" stroke-miterlimit="10" stroke-linecap="round" stroke-linejoin="round"/>
<path d="M7.17061 74.8206C8.45742 74.8206 9.50058 73.7817 9.50058 72.5003C9.50058 71.2188 8.45742 70.1799 7.17061 70.1799C5.8838 70.1799 4.84063 71.2188 4.84063 72.5003C4.84063 73.7817 5.8838 74.8206 7.17061 74.8206Z" stroke="#003DA5" stroke-width="2" stroke-miterlimit="10" stroke-linecap="round" stroke-linejoin="round"/>
<path d="M14.8942 74.8206C16.1811 74.8206 17.2242 73.7817 17.2242 72.5003C17.2242 71.2188 16.1811 70.1799 14.8942 70.1799C13.6074 70.1799 12.5643 71.2188 12.5643 72.5003C12.5643 73.7817 13.6074 74.8206 14.8942 74.8206Z" stroke="#003DA5" stroke-width="2" stroke-miterlimit="10" stroke-linecap="round" stroke-linejoin="round"/>
<path d="M7.17061 85.8206C8.45742 85.8206 9.50058 84.7817 9.50058 83.5003C9.50058 82.2188 8.45742 81.1799 7.17061 81.1799C5.8838 81.1799 4.84063 82.2188 4.84063 83.5003C4.84063 84.7817 5.8838 85.8206 7.17061 85.8206Z" stroke="#003DA5" stroke-width="2" stroke-miterlimit="10" stroke-linecap="round" stroke-linejoin="round"/>
<path d="M14.8942 85.8206C16.1811 85.8206 17.2242 84.7817 17.2242 83.5003C17.2242 82.2188 16.1811 81.1799 14.8942 81.1799C13.6074 81.1799 12.5643 82.2188 12.5643 83.5003C12.5643 84.7817 13.6074 85.8206 14.8942 85.8206Z" stroke="#003DA5" stroke-width="2" stroke-miterlimit="10" stroke-linecap="round" stroke-linejoin="round"/>
<path d="M21.9268 72.5002H29.2351" stroke="#003DA5" stroke-width="2" stroke-miterlimit="10" stroke-linecap="round" stroke-linejoin="round"/>
<path d="M21.9268 83.5002H29.2351" stroke="#003DA5" stroke-width="2" stroke-miterlimit="10" stroke-linecap="round" stroke-linejoin="round"/>
<path d="M74.6973 29.2876H78.3875C79.5012 29.2876 80.4031 28.3894 80.4031 27.2804V3.00617C80.4031 1.8987 79.5012 1.00049 78.3875 1.00049H71.2948C69.6089 1.00049 67.9909 1.6669 66.798 2.85486L59.8621 9.76366C58.6708 10.9516 58 12.5613 58 14.2402V27.2804C58 28.3894 58.9019 29.2876 60.0156 29.2876H69.0399" stroke="#003DA5" stroke-width="2" stroke-miterlimit="10" stroke-linecap="round" stroke-linejoin="round"/>
<path d="M71.8695 1C70.0978 1 68.6616 2.43021 68.6616 4.1946V9.61187C68.6616 10.72 67.7595 11.6184 66.6468 11.6184H61.2089C59.4372 11.6184 58.0011 13.0486 58.0011 14.813" stroke="#003DA5" stroke-width="2" stroke-miterlimit="10" stroke-linecap="round" stroke-linejoin="round"/>
<path d="M64.1504 17.4031H74.2534" stroke="#003DA5" stroke-width="2" stroke-miterlimit="10" stroke-linecap="round" stroke-linejoin="round"/>
<path d="M64.1504 22.4336H74.2534" stroke="#003DA5" stroke-width="2" stroke-miterlimit="10" stroke-linecap="round" stroke-linejoin="round"/>
<path d="M83.1042 44.2697C82.9392 42.9576 81.7387 42.0271 80.4197 42.1914C79.1022 42.3558 78.1678 43.5527 78.3328 44.8648C78.5035 46.221 78.5898 47.6122 78.5898 49.0001C78.5898 56.3146 76.2537 63.2543 71.834 69.069C68.0479 74.0502 62.8537 77.9136 57.0277 80.1255L56.618 77.705C56.4562 76.7488 55.3155 76.3258 54.565 76.9436L46.8547 83.29C46.1042 83.9076 46.3066 85.1027 47.2189 85.4412L56.5923 88.9189C57.5047 89.2574 58.4429 88.4854 58.2811 87.5293L57.8408 84.9285C64.8675 82.4621 71.1473 77.9072 75.6682 71.9593C80.7254 65.3058 83.3986 57.3667 83.3986 49.0003C83.3984 47.4139 83.2993 45.8224 83.1042 44.2697Z" stroke="#003DA5" stroke-width="2" stroke-miterlimit="10" stroke-linecap="round" stroke-linejoin="round"/>
<path d="M27.7544 20.5968C29.5162 19.5199 31.3751 18.6072 33.305 17.8748L33.7156 20.2958C33.8772 21.2519 35.0184 21.6737 35.7684 21.0572L43.4786 14.7101C44.2286 14.092 44.0265 12.8976 43.1149 12.5596L33.7415 9.08104C32.8282 8.743 31.8907 9.51565 32.0523 10.4702L32.492 13.0715C25.4656 15.5375 19.1859 20.093 14.6649 26.0408C9.60721 32.6953 6.93532 40.6343 6.93532 48.9999C6.93532 50.5854 7.03392 52.1774 7.22951 53.7307C7.38145 54.9412 8.41755 55.8282 9.61206 55.8282C9.71066 55.8282 9.81249 55.8217 9.91432 55.8089C11.2317 55.6447 12.1659 54.4471 12.0011 53.1352C11.8297 51.7798 11.7441 50.3874 11.7441 48.9999C11.7441 41.6854 14.0797 34.746 18.4989 28.9318C19.8874 27.1048 21.465 25.4291 23.1945 23.9305" stroke="#003DA5" stroke-width="2" stroke-miterlimit="10" stroke-linecap="round" stroke-linejoin="round"/>
</svg>
