<svg width="82" height="82" viewBox="0 0 82 82" fill="none" xmlns="http://www.w3.org/2000/svg">
<path d="M1 40.9998L13.5001 33.1873" stroke="#003DA5" stroke-width="2" stroke-miterlimit="10" stroke-linecap="round" stroke-linejoin="round"/>
<path d="M68.5 33.1873L81.0001 40.9998" stroke="#003DA5" stroke-width="2" stroke-miterlimit="10" stroke-linecap="round" stroke-linejoin="round"/>
<path d="M13.5 38.3693V2.12677C13.5 1.50447 14.0045 1 14.6268 1H61L68.4999 8.49994V48.4999" stroke="#003DA5" stroke-width="2" stroke-miterlimit="10" stroke-linecap="round" stroke-linejoin="round"/>
<path d="M13.5 48.8125V43.6306" stroke="#003DA5" stroke-width="2" stroke-miterlimit="10" stroke-linecap="round" stroke-linejoin="round"/>
<path d="M61 1V7.37317C61 7.99547 61.5045 8.49994 62.1268 8.49994H68.4999" stroke="#003DA5" stroke-width="2" stroke-miterlimit="10" stroke-linecap="round" stroke-linejoin="round"/>
<path d="M1 80.9998V40.9998L29.6105 58.8813" stroke="#003DA5" stroke-width="2" stroke-miterlimit="10" stroke-linecap="round" stroke-linejoin="round"/>
<path d="M80.9999 51.306V40.9998L52.2568 58.9642" stroke="#003DA5" stroke-width="2" stroke-miterlimit="10" stroke-linecap="round" stroke-linejoin="round"/>
<path d="M81 81V56.5676" stroke="#003DA5" stroke-width="2" stroke-miterlimit="10" stroke-linecap="round" stroke-linejoin="round"/>
<path d="M52.704 63.315L81.0001 80.9999H1L29.3616 63.2739" stroke="#003DA5" stroke-width="2" stroke-miterlimit="10" stroke-linecap="round" stroke-linejoin="round"/>
<path d="M45.4469 72.9576C44.0761 73.521 42.5747 73.8317 41.0008 73.8317C34.5368 73.8317 29.2969 68.5917 29.2969 62.1277C29.2969 55.6638 34.5368 50.4238 41.0008 50.4238C47.4648 50.4238 52.7047 55.6638 52.7047 62.1277C52.7047 65.1155 51.5852 67.8416 49.7429 69.9099" stroke="#003DA5" stroke-width="2" stroke-miterlimit="10" stroke-linecap="round" stroke-linejoin="round"/>
<path d="M42.9825 62.061C42.9825 63.4975 42.1009 64.5732 41.0456 64.5732C39.9901 64.5732 39.0566 63.5124 39.0566 62.076C39.0566 60.6395 40.0419 59.6824 41.0974 59.6824C42.1528 59.6824 42.9825 60.6245 42.9825 62.061Z" stroke="#003DA5" stroke-width="2" stroke-miterlimit="10" stroke-linecap="round" stroke-linejoin="round"/>
<path d="M40.8663 68.6481C38.0635 68.5705 35.508 66.6737 34.7491 63.7884C33.8732 60.4581 35.7889 56.9796 39.0702 55.9351C42.5407 54.8304 46.2317 56.7828 47.2802 60.2571C47.6512 61.6474 47.4347 62.8567 46.943 64.0929C46.748 64.5832 46.105 65.7308 44.6748 65.7308C43.8939 65.7308 42.9563 64.9824 42.9606 64.1206L42.989 62.0478" stroke="#003DA5" stroke-width="2" stroke-miterlimit="10" stroke-linecap="round" stroke-linejoin="round"/>
<path d="M47.2796 60.2571C47.6506 61.6474 47.4341 62.8567 46.9424 64.0929" stroke="#003DA5" stroke-width="2" stroke-miterlimit="10" stroke-linecap="round" stroke-linejoin="round"/>
<path d="M33.8457 30.8617L34.2769 42.5951L29.2084 43.4856L27.707 30.7202" stroke="#003DA5" stroke-width="2" stroke-miterlimit="10" stroke-linecap="round" stroke-linejoin="round"/>
<path d="M47.3217 32.4179L44.5205 32.91C43.8858 33.0215 43.2809 32.5974 43.1694 31.9627L40.4376 16.4123C40.3261 15.7776 40.7502 15.1727 41.3849 15.0612L44.186 14.5691C44.8207 14.4575 45.4257 14.8817 45.5372 15.5164L48.269 31.0668C48.3805 31.7016 47.9564 32.3065 47.3217 32.4179Z" stroke="#003DA5" stroke-width="2" stroke-miterlimit="10" stroke-linecap="round" stroke-linejoin="round"/>
<path d="M43.1978 32.1268L37.7357 30.9511L27.7138 30.7204C27.3999 30.7084 27.1371 30.4788 27.0827 30.1696L25.9252 23.5806C25.8708 23.2712 26.0398 22.9658 26.3308 22.8475L35.6713 19.216L40.4084 16.248" stroke="#003DA5" stroke-width="2" stroke-miterlimit="10" stroke-linecap="round" stroke-linejoin="round"/>
<path d="M27.0924 30.2244L23.1419 30.9183C22.5072 31.0298 21.9023 30.6057 21.7908 29.971L21.0178 25.571C20.9063 24.9363 21.3304 24.3314 21.9651 24.2198L25.9156 23.5259" stroke="#003DA5" stroke-width="2" stroke-miterlimit="10" stroke-linecap="round" stroke-linejoin="round"/>
<path d="M35.6709 19.2161L37.7326 30.9519" stroke="#003DA5" stroke-width="2" stroke-miterlimit="10" stroke-linecap="round" stroke-linejoin="round"/>
<path d="M21 11H31.9569" stroke="#003DA5" stroke-width="2" stroke-miterlimit="10" stroke-linecap="round" stroke-linejoin="round"/>
<path d="M21 16H27.7877" stroke="#003DA5" stroke-width="2" stroke-miterlimit="10" stroke-linecap="round" stroke-linejoin="round"/>
<path d="M53.6699 38.5H61.0002" stroke="#003DA5" stroke-width="2" stroke-miterlimit="10" stroke-linecap="round" stroke-linejoin="round"/>
<path d="M42.9805 43.478H61.0003" stroke="#003DA5" stroke-width="2" stroke-miterlimit="10" stroke-linecap="round" stroke-linejoin="round"/>
</svg>
