<svg width="99" height="81" viewBox="0 0 99 81" fill="none" xmlns="http://www.w3.org/2000/svg">
<path d="M5.48047 35.1389V78.0671C5.48047 79.1346 6.35425 79.9999 7.43218 79.9999H83.4205C84.4984 79.9999 85.3722 79.1346 85.3722 78.0671V74.1629" stroke="#003DA5" stroke-width="2" stroke-miterlimit="10" stroke-linecap="round" stroke-linejoin="round"/>
<path d="M11.375 35.1389V72.2301C11.375 73.2976 12.2488 74.1629 13.3267 74.1629H68.6269" stroke="#003DA5" stroke-width="2" stroke-miterlimit="10" stroke-linecap="round" stroke-linejoin="round"/>
<path d="M51.5486 22.3469H36.6875" stroke="#003DA5" stroke-width="2" stroke-miterlimit="10" stroke-linecap="round" stroke-linejoin="round"/>
<path d="M91.2668 41.1304V24.2798C91.2668 23.2123 90.393 22.3469 89.3151 22.3469H82.3311" stroke="#003DA5" stroke-width="2" stroke-miterlimit="10" stroke-linecap="round" stroke-linejoin="round"/>
<path d="M75.458 74.163H89.3152C90.3931 74.163 91.2669 73.2977 91.2669 72.2301V50.218" stroke="#003DA5" stroke-width="2" stroke-miterlimit="10" stroke-linecap="round" stroke-linejoin="round"/>
<path d="M50.7441 35.1389H59.8438" stroke="#003DA5" stroke-width="2" stroke-miterlimit="10" stroke-linecap="round" stroke-linejoin="round"/>
<path d="M8.70926 9.57983H2.56137C1.6991 9.57983 1 10.2722 1 11.1261V33.5925C1 34.4464 1.6991 35.1387 2.56137 35.1387H35.1262C35.9885 35.1387 36.6876 34.4464 36.6876 33.5925V11.1261C36.6876 10.2722 35.9885 9.57983 35.1262 9.57983H15.5402" stroke="#003DA5" stroke-width="2" stroke-miterlimit="10" stroke-linecap="round" stroke-linejoin="round"/>
<path d="M31.6184 30.1185H6.06934V14.6001" stroke="#003DA5" stroke-width="2" stroke-miterlimit="10" stroke-linecap="round" stroke-linejoin="round"/>
<path d="M11.3408 30.1186V24.8416" stroke="#003DA5" stroke-width="2" stroke-miterlimit="10" stroke-linecap="round" stroke-linejoin="round"/>
<path d="M17.2217 30.1186V17.8132" stroke="#003DA5" stroke-width="2" stroke-miterlimit="10" stroke-linecap="round" stroke-linejoin="round"/>
<path d="M23.1016 30.1186V22.03" stroke="#003DA5" stroke-width="2" stroke-miterlimit="10" stroke-linecap="round" stroke-linejoin="round"/>
<path d="M28.9824 30.1186V17.8132" stroke="#003DA5" stroke-width="2" stroke-miterlimit="10" stroke-linecap="round" stroke-linejoin="round"/>
<path d="M40.6261 63.0058C45.7845 57.8972 45.7845 49.6145 40.6261 44.506C35.4676 39.3974 27.1041 39.3974 21.9457 44.506C16.7872 49.6145 16.7872 57.8972 21.9457 63.0058C27.1041 68.1143 35.4676 68.1143 40.6261 63.0058Z" stroke="#003DA5" stroke-width="2" stroke-miterlimit="10" stroke-linecap="round" stroke-linejoin="round"/>
<path d="M44.4953 53.756H31.2861V40.6746" stroke="#003DA5" stroke-width="2" stroke-miterlimit="10" stroke-linecap="round" stroke-linejoin="round"/>
<path d="M49.375 66.8376H81.7734" stroke="#003DA5" stroke-width="2" stroke-miterlimit="10" stroke-linecap="round" stroke-linejoin="round"/>
<path d="M59.0043 52.0535L53.8639 57.5694H49.375" stroke="#003DA5" stroke-width="2" stroke-miterlimit="10" stroke-linecap="round" stroke-linejoin="round"/>
<path d="M68.0903 56.9593L63.0576 51.9751" stroke="#003DA5" stroke-width="2" stroke-miterlimit="10" stroke-linecap="round" stroke-linejoin="round"/>
<path d="M77.2631 51.9751L72.2305 56.9593" stroke="#003DA5" stroke-width="2" stroke-miterlimit="10" stroke-linecap="round" stroke-linejoin="round"/>
<path d="M60.9881 52.8244C62.605 52.8244 63.9157 51.5264 63.9157 49.9251C63.9157 48.3239 62.605 47.0259 60.9881 47.0259C59.3713 47.0259 58.0605 48.3239 58.0605 49.9251C58.0605 51.5264 59.3713 52.8244 60.9881 52.8244Z" stroke="#003DA5" stroke-width="2" stroke-miterlimit="10" stroke-linecap="round" stroke-linejoin="round"/>
<path d="M70.161 61.9086C71.7778 61.9086 73.0885 60.6106 73.0885 59.0094C73.0885 57.4081 71.7778 56.1101 70.161 56.1101C68.5441 56.1101 67.2334 57.4081 67.2334 59.0094C67.2334 60.6106 68.5441 61.9086 70.161 61.9086Z" stroke="#003DA5" stroke-width="2" stroke-miterlimit="10" stroke-linecap="round" stroke-linejoin="round"/>
<path d="M79.3336 52.8244C80.9505 52.8244 82.2612 51.5264 82.2612 49.9251C82.2612 48.3239 80.9505 47.0259 79.3336 47.0259C77.7168 47.0259 76.4061 48.3239 76.4061 49.9251C76.4061 51.5264 77.7168 52.8244 79.3336 52.8244Z" stroke="#003DA5" stroke-width="2" stroke-miterlimit="10" stroke-linecap="round" stroke-linejoin="round"/>
<path d="M50.7451 42.4836H55.9669" stroke="#003DA5" stroke-width="2" stroke-miterlimit="10" stroke-linecap="round" stroke-linejoin="round"/>
<path d="M61.1883 42.4836H77.4802" stroke="#003DA5" stroke-width="2" stroke-miterlimit="10" stroke-linecap="round" stroke-linejoin="round"/>
<path d="M77.836 32.3742C83.8541 26.4142 83.8542 16.7513 77.836 10.7914C71.8179 4.83143 62.0606 4.83143 56.0425 10.7914C50.0244 16.7513 50.0244 26.4142 56.0425 32.3742C62.0606 38.3341 71.8179 38.3341 77.836 32.3742Z" stroke="#003DA5" stroke-width="2" stroke-miterlimit="10" stroke-linecap="round" stroke-linejoin="round"/>
<path d="M57.4153 25.5716C58.989 29.2427 62.6656 31.824 66.9397 31.824C72.642 31.824 77.281 27.2296 77.281 21.5826C77.281 15.9357 72.642 11.3413 66.9397 11.3413C62.2089 11.3413 58.2128 14.5048 56.9875 18.8067" stroke="#003DA5" stroke-width="2" stroke-miterlimit="10" stroke-linecap="round" stroke-linejoin="round"/>
<path d="M77.8371 32.374L83.8591 38.3378" stroke="#003DA5" stroke-width="2" stroke-miterlimit="10" stroke-linecap="round" stroke-linejoin="round"/>
<path d="M97.0498 51.4015C95.7827 52.6563 93.7286 52.6563 92.4615 51.4015L82.2816 41.3198C81.8856 40.9276 81.8856 40.2919 82.2816 39.8999L85.4359 36.7761C85.8319 36.3839 86.4739 36.3839 86.8697 36.7761L97.0498 46.8577C98.3168 48.1124 98.3168 50.1469 97.0498 51.4015Z" stroke="#003DA5" stroke-width="2" stroke-miterlimit="10" stroke-linecap="round" stroke-linejoin="round"/>
<path d="M61.6006 21.0294L65.6992 25.0883L72.1398 18.71" stroke="#003DA5" stroke-width="2" stroke-miterlimit="10" stroke-linecap="round" stroke-linejoin="round"/>
</svg>
