<svg width="91" height="80" viewBox="0 0 91 80" fill="none" xmlns="http://www.w3.org/2000/svg">
<path d="M84.322 7.20156H41.0479V9.54984H84.322C86.5312 9.54984 88.3288 11.13 88.3288 13.0723V47.9059H40.7808V13.3734L34.1028 3.58875L27.4246 13.3734V47.9061H22.9725V0H7.8356V47.9061H2.67117V13.0723C2.67117 11.6259 3.70221 10.3044 5.23677 9.78422L4.2754 7.59328C1.71816 8.46047 0 10.6622 0 13.0723V56.908C0 60.1452 2.99571 62.7787 6.67801 62.7787H31.6986V71.3894H27.6917C24.9914 71.3894 22.7944 73.3206 22.7944 75.6947V80H68.2056V75.6947C68.2056 73.3206 66.0086 71.3894 63.3083 71.3894H59.3014V62.7787H84.322C88.0043 62.7787 91 60.1452 91 56.908V13.0723C91 9.83516 88.0043 7.20156 84.322 7.20156ZM34.1028 8.15312L37.6129 13.2959L34.1028 15.1472L30.5927 13.2958L34.1028 8.15312ZM30.0959 15.7723L34.1028 17.8858L38.1096 15.7723V41.6437H30.0959V15.7723ZM30.0959 43.9922H38.1096V47.9061H30.0959V43.9922ZM10.5068 45.0881H17.0067V42.7398H10.5068V40.3916H14.1574V38.0433H10.5068V35.695H17.0067V33.3467H10.5068V30.9984H14.1574V28.6502H10.5068V26.3019H17.0067V23.9536H10.5068V21.6047H14.1574V19.2564H10.5068V16.9081H17.0067V14.5597H10.5068V12.2114H14.1574V9.86297H10.5068V7.51469H17.0067V5.16641H10.5068V2.34828H20.3014V47.9059H10.5068V45.0881ZM63.3083 73.7378C64.5357 73.7378 65.5342 74.6156 65.5342 75.6947V77.6516H25.4658V75.6947C25.4658 74.6156 26.4643 73.7378 27.6917 73.7378H63.3083ZM34.3699 71.3894V62.7787H56.6303V71.3894H34.3699ZM88.3288 56.908C88.3288 58.8503 86.5312 60.4305 84.322 60.4305H6.67801C4.46878 60.4305 2.67117 58.8503 2.67117 56.908V50.2544H88.3287V56.908H88.3288Z" fill="#003DA5"/>
</svg>
