<svg width="83" height="82" viewBox="0 0 83 82" fill="none" xmlns="http://www.w3.org/2000/svg">
<path d="M81.0385 39.8225V42.113C80.9517 42.6058 80.8793 43.0987 80.9082 43.5916C80.9227 43.8671 80.9082 44.1425 80.8938 44.4324C80.8938 44.5049 80.9082 44.5774 80.8793 44.6354C80.7055 44.9833 80.7779 45.3602 80.749 45.7227C80.7345 45.8386 80.7635 45.9691 80.7056 46.0561C80.6042 46.2301 80.6187 46.404 80.6042 46.5925C80.5608 47.0129 80.5029 47.4333 80.4449 47.8537C80.4305 47.9117 80.4015 47.9552 80.387 48.0132C80.3581 48.0857 80.3436 48.1726 80.3291 48.2451C80.2712 48.622 80.2133 48.9845 80.1554 49.3614C80.1554 49.3904 80.1409 49.4049 80.1409 49.4339C80.0685 49.7238 79.9816 49.9992 79.9093 50.2892C79.8369 50.5791 79.8369 50.898 79.7066 51.159C79.6052 51.3764 79.6197 51.5794 79.5618 51.7968C79.4315 52.1883 79.3012 52.5942 79.1709 52.9856C79.0406 53.377 78.9103 53.7829 78.78 54.1743C78.6786 54.4643 78.5628 54.7397 78.4615 55.0296C78.2443 55.6095 78.0271 56.2039 77.781 56.7693C77.6362 57.1172 77.448 57.4361 77.3032 57.7695C77.0716 58.2624 76.8978 58.7698 76.6372 59.2337C76.145 60.089 75.6961 60.9588 75.1749 61.7997C74.7116 62.5535 74.2194 63.2928 73.7271 64.0177C73.3217 64.6265 72.8585 65.2209 72.3952 65.7863C71.9319 66.3807 71.4396 66.9605 70.9329 67.5114C70.3393 68.1638 69.7167 68.7871 69.0942 69.4105C68.5874 69.9179 68.0807 70.4108 67.5595 70.8892C67.0383 71.3676 66.4881 71.817 65.9379 72.2664C65.6339 72.5128 65.3154 72.7158 65.0114 72.9332C64.6928 73.1797 64.3888 73.4406 64.0558 73.6726C63.5491 74.0205 63.0423 74.3539 62.5211 74.6729C61.9275 75.0498 61.3195 75.4122 60.7114 75.7746C60.2915 76.0211 59.8716 76.253 59.4373 76.456C58.7134 76.8184 57.975 77.1808 57.2366 77.5142C56.7589 77.7317 56.2521 77.9202 55.7599 78.1231C55.1373 78.3696 54.5148 78.6015 53.8922 78.8335C53.6895 78.9059 53.4724 78.9494 53.2697 79.0219C53.0525 79.0944 52.8498 79.1959 52.6471 79.2539C52.372 79.3408 52.0825 79.4278 51.8074 79.5003C51.5323 79.5728 51.2572 79.6308 50.9821 79.6888C50.7215 79.7468 50.4754 79.8192 50.2148 79.8772C49.8528 79.9642 49.4909 80.0657 49.1145 80.1382C48.7815 80.2107 48.434 80.2397 48.101 80.2976C48.0721 80.2976 48.0576 80.3121 48.0431 80.3266C47.8694 80.3701 47.6811 80.3991 47.5074 80.4426C47.4061 80.4571 47.2758 80.4281 47.2034 80.4716C46.9862 80.6021 46.7545 80.5731 46.5374 80.5876C46.4505 80.5876 46.3347 80.5586 46.2623 80.6021C45.8859 80.805 45.495 80.7036 45.1041 80.7325C45.0172 80.747 44.9014 80.718 44.829 80.7615C44.6408 80.8775 44.4236 80.863 44.2209 80.863C43.7865 80.863 43.3667 80.8775 42.9323 80.8775C42.8455 80.8775 42.7441 80.8775 42.6573 80.892C42.3677 80.921 42.0637 80.979 41.7741 80.9935C41.195 81.008 40.6159 80.9935 40.0367 80.9935C39.892 80.9935 39.7617 80.9645 39.6169 80.9645C39.2839 80.9355 38.9509 80.892 38.6179 80.8775C38.2849 80.863 37.9519 80.863 37.6044 80.863C37.5176 80.863 37.4017 80.8775 37.3293 80.834C37.1701 80.718 36.9963 80.718 36.8226 80.747C36.2145 80.805 35.6499 80.5586 35.0418 80.5731C34.9694 80.5731 34.8826 80.5296 34.8102 80.5006C34.7233 80.4716 34.6364 80.4571 34.5496 80.4426L33.3334 80.2686H33.3044C32.957 80.1817 32.624 80.0947 32.2765 80.0222C31.9869 79.9497 31.6829 79.9352 31.4078 79.8337C31.0459 79.7178 30.6839 79.5873 30.293 79.5583C30.2641 79.5583 30.2206 79.5438 30.1917 79.5293C29.96 79.4423 29.7284 79.3553 29.4967 79.2829C29.2651 79.2104 29.0045 79.1814 28.7728 79.0944C28.4254 78.9784 28.0779 78.8335 27.7304 78.703C27.021 78.442 26.2826 78.2101 25.5877 77.9202C24.8927 77.6302 24.2267 77.2823 23.5318 76.9634C22.3591 76.427 21.2587 75.7891 20.1584 75.1368C19.4779 74.7308 18.8119 74.2959 18.1604 73.8465C17.5813 73.4551 17.0456 73.0202 16.4954 72.5998C16.0032 72.2229 15.5109 71.817 15.0332 71.4111C14.5699 71.0197 14.1066 70.6137 13.6722 70.2078C12.6877 69.28 11.7467 68.3232 10.878 67.294C10.516 66.8736 10.1685 66.4676 9.80659 66.0472L9.76316 66.0037C9.51703 65.6703 9.27091 65.3514 9.02478 65.018C8.79313 64.7135 8.547 64.4091 8.32983 64.0902C7.96788 63.5538 7.60593 63.0174 7.24398 62.4665C7.05577 62.1911 6.86755 61.9011 6.69381 61.6112C6.41873 61.1328 6.15813 60.6399 5.89752 60.147C5.62244 59.6396 5.34736 59.1322 5.08675 58.6249C4.84063 58.132 4.60898 57.6391 4.37733 57.1462C4.17464 56.6968 3.97194 56.2329 3.78373 55.769C3.60999 55.3196 3.49417 54.8412 3.30595 54.3918C3.1467 54.0004 3.00192 53.6089 2.88609 53.203C2.82818 53.0001 2.75579 52.7826 2.69788 52.5797C2.56757 52.1738 2.43727 51.7534 2.32145 51.3474C2.24906 51.101 2.23458 50.8256 2.14771 50.5791C2.01741 50.1877 1.90158 49.7963 1.87263 49.3759C1.87263 49.3324 1.85815 49.2889 1.84367 49.2454C1.80024 49.0859 1.77128 48.941 1.74233 48.7815C1.72785 48.6945 1.72785 48.593 1.71337 48.5061C1.68441 48.3466 1.64098 48.2016 1.59755 48.0422C1.58307 47.9697 1.61202 47.8682 1.58307 47.7957C1.35142 47.3898 1.4962 46.9259 1.33694 46.491C1.22112 46.1576 1.27903 45.7517 1.19216 45.3747C1.09081 44.8674 1.19216 44.3165 1.0329 43.7946C1.01842 42.2579 0.989468 40.7358 1.00395 39.1991C1.00395 38.6627 0.989468 38.1118 1.13425 37.5754C1.22112 37.271 1.1632 36.9231 1.17768 36.6042C1.17768 36.5027 1.19216 36.4012 1.22112 36.2997C1.25007 36.1548 1.29351 36.0098 1.30798 35.8648C1.3659 35.3719 1.38037 34.85 1.4962 34.3716C1.55411 34.1107 1.58307 33.8643 1.61202 33.6033C1.61202 33.5598 1.6265 33.5163 1.64098 33.4728C1.72785 33.1249 1.81472 32.7915 1.88711 32.4436C1.94502 32.1391 2.00293 31.8347 2.04636 31.5448C2.04636 31.5158 2.06084 31.5013 2.07532 31.4868C2.16219 31.2258 2.24906 30.9794 2.30697 30.7184C2.37936 30.4285 2.40832 30.1386 2.49518 29.8486C2.65444 29.3267 2.85714 28.8194 3.03087 28.2975C3.08878 28.1235 3.13222 27.9495 3.19013 27.7756C3.26252 27.5436 3.34939 27.3117 3.43626 27.0797C3.5376 26.8043 3.65343 26.5433 3.75477 26.2679C3.92851 25.8185 4.10225 25.3546 4.29046 24.9197C4.43524 24.5863 4.60898 24.2673 4.76824 23.9339C5.13019 23.1946 5.49214 22.4407 5.86857 21.7159C6.14365 21.194 6.47664 20.7011 6.7662 20.1937C7.11368 19.5849 7.51906 19.005 7.88101 18.4106C8.14162 17.9902 8.47461 17.5988 8.77865 17.1929C8.92343 16.9899 9.11165 16.816 9.24195 16.5985C9.70525 15.8302 10.3568 15.1923 10.9069 14.511C11.3847 13.9311 11.9349 13.3947 12.4706 12.8583C12.847 12.4669 13.2379 12.1045 13.6433 11.7276C14.2514 11.1767 14.8739 10.6258 15.482 10.0749C15.5254 10.0314 15.5689 10.0025 15.6123 9.97346L16.6113 9.19063C16.8864 8.97317 17.1325 8.75572 17.422 8.55277C17.8709 8.23383 18.3342 7.9149 18.7975 7.61047C19.2463 7.32053 19.6951 7.04509 20.1439 6.76965C20.5059 6.5522 20.8968 6.34925 21.2587 6.1173C22.0984 5.58091 23.0106 5.1895 23.8937 4.7401C24.2846 4.53714 24.69 4.36318 25.0954 4.18922C25.5732 3.98626 26.051 3.7833 26.5432 3.58035C26.8907 3.43538 27.2526 3.31941 27.6146 3.18893C27.9621 3.07296 28.324 2.95698 28.6715 2.84101C28.8886 2.76853 29.1058 2.72504 29.323 2.66705C29.5546 2.59456 29.7573 2.47859 29.989 2.4206C30.4378 2.30463 30.9011 2.21765 31.3499 2.08717C31.7553 1.9712 32.1462 1.82623 32.5805 1.81173C32.6095 1.81173 32.6529 1.81173 32.6819 1.78274C32.8122 1.65227 32.9859 1.68126 33.1452 1.66677C33.2321 1.66677 33.3189 1.68126 33.3768 1.63777C33.594 1.4928 33.8401 1.5218 34.0863 1.5073C34.1442 1.5073 34.2166 1.5218 34.26 1.4928C34.4482 1.33334 34.6799 1.39133 34.897 1.37683C34.9839 1.37683 35.0708 1.39133 35.1432 1.36233C35.5485 1.17387 35.9539 1.18837 36.3738 1.37683C36.9384 1.62328 37.228 2.08717 37.3004 2.66705C37.3728 3.20343 37.3004 3.76881 37.4307 4.31969C37.561 4.87057 37.4307 5.45044 37.5755 6.03031C37.6913 6.5522 37.5899 7.10308 37.7058 7.63946C37.8361 8.21934 37.7347 8.82821 37.8506 9.42258C37.9664 9.97346 37.8795 10.5678 37.9953 11.1332C38.1112 11.6841 38.0243 12.2495 38.1401 12.8148C38.2559 13.3367 38.1835 13.8876 38.2849 14.424C38.4007 15.0329 38.3283 15.6562 38.4442 16.2796C38.5021 16.613 38.4731 16.9754 38.4876 17.3234C38.4876 17.4103 38.4876 17.5118 38.5021 17.5988C38.5455 17.8307 38.6034 18.0482 38.6179 18.2657C38.6468 18.7006 38.6179 19.1355 38.7192 19.5704C38.7916 19.9038 38.7482 20.2662 38.7627 20.6141C38.7627 20.7301 38.7627 20.8461 38.8061 20.9476C39.0088 21.397 38.7916 21.7739 38.5889 22.1363C38.5021 22.2958 38.3283 22.4407 38.1691 22.5422C38.0098 22.6582 37.8361 22.7452 37.6623 22.7887C37.3728 22.8611 37.0543 22.8756 36.7647 22.9481C36.3304 23.0641 35.9105 23.2526 35.4617 23.3395C34.9549 23.441 34.4916 23.644 34.0284 23.8324C33.3479 24.1224 32.6385 24.3978 32.0014 24.8037C31.654 25.0357 31.2775 25.2096 30.9301 25.4416C30.5102 25.717 30.1193 26.0215 29.7139 26.3259C29.2361 26.7028 28.7583 27.0652 28.324 27.4711C27.8462 27.9205 27.3829 28.3699 26.9775 28.8918C26.6156 29.3557 26.2247 29.7761 25.9062 30.269C25.6166 30.7184 25.3126 31.1388 25.0375 31.6027C24.8058 31.9942 24.5887 32.4001 24.4005 32.8205C24.1688 33.2989 23.9227 33.7773 23.7779 34.2847C23.6766 34.6036 23.4739 34.908 23.4159 35.2415C23.3436 35.6764 23.083 36.0678 23.0974 36.5172C22.8803 36.8071 22.9527 37.184 22.8513 37.503C22.721 37.9524 22.721 38.4597 22.6631 38.9381C22.6197 39.2861 22.5473 39.6195 22.5473 39.9674C22.5183 40.9097 22.5038 41.8665 22.6631 42.7943C22.75 43.2582 22.7789 43.7366 22.8368 44.2005C22.8368 44.2295 22.8658 44.2585 22.8658 44.302C22.9527 44.6499 23.025 44.9833 23.1119 45.3313C23.1698 45.5922 23.1988 45.8531 23.2856 46.0996C23.4015 46.4475 23.5752 46.7809 23.6621 47.1434C23.7779 47.5928 23.9951 48.0132 24.1688 48.4336C24.4439 49.0714 24.7914 49.6658 25.1388 50.2602C25.3271 50.5791 25.5297 50.898 25.7469 51.2025C25.9062 51.4344 26.0654 51.6374 26.2392 51.8548C26.5142 52.2028 26.7459 52.5942 27.0644 52.9131C27.8173 53.6959 28.5412 54.5222 29.4243 55.1601C29.7139 55.3776 29.9745 55.624 30.2785 55.827C30.9445 56.2764 31.625 56.7403 32.3489 57.0882C32.928 57.3636 33.5071 57.6391 34.1007 57.8855C34.4916 58.0595 34.9115 58.1755 35.3169 58.3349C35.6065 58.4509 35.896 58.5814 36.2145 58.6104C36.2724 58.6104 36.3159 58.6394 36.3738 58.6683C36.6489 58.7408 36.9095 58.8568 37.1846 58.8858C37.6334 58.9148 38.0532 59.1177 38.5021 59.0598C38.531 59.0598 38.5745 59.0743 38.6034 59.0888C38.7627 59.1177 38.9364 59.1757 39.0957 59.1902C39.4721 59.2047 39.834 59.1902 40.2105 59.2047C40.4856 59.2192 40.7606 59.2627 41.0357 59.2627C41.6438 59.2482 42.2374 59.2192 42.831 59.1902C42.9179 59.1902 43.0337 59.2047 43.1061 59.1757C43.3522 59.0308 43.6273 59.0743 43.8879 59.0453C43.9748 59.0308 44.0616 59.0163 44.163 59.0018C44.2788 58.9728 44.4091 58.9438 44.5249 58.9148C44.8434 58.8568 45.162 58.8278 45.466 58.7408C45.8714 58.6249 46.2623 58.4799 46.6532 58.3494C47.2468 58.1465 47.8549 57.987 48.4195 57.7116C49.0131 57.4216 49.6067 57.1317 50.1858 56.7983C50.9821 56.3199 51.7495 55.7835 52.5023 55.2326C52.9367 54.9137 53.3131 54.5223 53.7185 54.1598C54.1383 53.7829 54.4858 53.348 54.8622 52.9276C55.2532 52.4927 55.6006 52.0433 55.9336 51.5649C56.4114 50.898 56.8457 50.2022 57.2366 49.4918C57.4104 49.1729 57.5841 48.8395 57.7289 48.4916C57.9171 48.0712 58.0764 47.6218 58.2501 47.1868C58.3804 46.8389 58.5107 46.491 58.6121 46.1286C58.6844 45.8966 58.7424 45.6502 58.8003 45.4037C58.9016 44.9833 59.003 44.5484 59.0754 44.1135C59.1333 43.7511 59.2057 43.3887 59.2057 43.0263C59.2057 42.9973 59.2201 42.9538 59.2346 42.9248C59.3504 42.7363 59.336 42.5189 59.336 42.3159C59.336 41.91 59.3504 41.5041 59.336 41.0982C59.3215 40.7792 59.3504 40.4748 59.4807 40.1849C59.6255 39.8804 59.8137 39.6195 60.1178 39.431C60.5521 39.1701 61.0299 39.1846 61.4787 39.0396C61.7972 38.9381 62.1592 38.9381 62.4922 38.8512C62.9555 38.7352 63.4188 38.5902 63.8965 38.5757C63.9255 38.5757 63.9545 38.5467 63.9979 38.5322C64.1427 38.5032 64.2875 38.4597 64.4322 38.4308C64.5046 38.4163 64.6204 38.4453 64.6639 38.4018C64.8231 38.2713 65.0114 38.2858 65.1851 38.2858C65.2575 38.2858 65.3443 38.3003 65.3878 38.2568C65.5326 38.1408 65.6918 38.1553 65.8511 38.1408C65.9235 38.1408 65.9959 38.1263 66.0538 38.1118C66.3868 38.0248 66.7198 37.9379 67.0528 37.8654C67.4002 37.7929 67.7477 37.7494 68.0952 37.7059C68.1241 37.7059 68.1386 37.6914 68.1676 37.6914C68.5006 37.6044 68.848 37.5175 69.181 37.445C69.543 37.3725 69.9049 37.329 70.2669 37.2565C70.2958 37.2565 70.3103 37.242 70.3393 37.242C70.6578 37.155 70.9763 37.0681 71.2948 37.0101C71.6278 36.9376 71.9753 36.8941 72.3083 36.8506C72.3372 36.8506 72.3662 36.8216 72.4096 36.8216C72.5689 36.7926 72.7137 36.7491 72.8729 36.7201C72.9453 36.7056 73.0322 36.7056 73.1046 36.6911C73.2638 36.6621 73.4086 36.6187 73.5679 36.5897C73.6547 36.5752 73.7416 36.5607 73.843 36.5317C73.9588 36.5027 74.0746 36.4592 74.2049 36.4447C74.2918 36.4302 74.4221 36.4737 74.48 36.4157C74.7696 36.1837 75.1749 36.4012 75.45 36.1548C75.8988 36.1258 76.3332 36.0388 76.7675 35.8938C76.9992 35.8068 77.2598 35.8068 77.5059 35.7343C77.8678 35.6329 78.2443 35.6039 78.6207 35.5459C78.6497 35.5459 78.6931 35.5459 78.7221 35.5314C79.0985 35.3429 79.4749 35.3719 79.8513 35.5604C80.387 35.8213 80.7779 36.1837 80.7635 36.8361C80.7635 36.8941 80.749 36.9666 80.7779 37.0101C80.9227 37.1985 80.8793 37.4015 80.8793 37.6189C80.9227 38.4163 80.8938 39.1266 81.0385 39.8225Z" stroke="#003DA5" stroke-width="2"/>
<path d="M76.6669 1C76.884 1.10148 77.1157 1.21745 77.3329 1.31893C77.8975 1.57987 78.2305 2.04377 78.4042 2.59465C78.5056 2.92808 78.6938 3.31949 78.4766 3.69641C78.4477 4.37776 78.0568 4.87066 77.5645 5.27657C76.6524 6.0304 75.8561 6.88572 75.0019 7.68304C74.2056 8.42238 73.4238 9.16172 72.642 9.90106C71.8167 10.6839 70.9915 11.4522 70.1662 12.2351C69.3555 13.0034 68.5447 13.7572 67.7194 14.5256C67.01 15.1924 66.3006 15.8738 65.5912 16.5261C64.5777 17.4684 63.5642 18.3817 62.5508 19.324C61.9427 19.9039 61.3636 20.4983 60.7555 21.0781C59.8868 21.9044 59.0181 22.7163 58.135 23.5281C57.4111 24.2094 56.7017 24.8908 55.9778 25.5576C55.8474 25.6881 55.7027 25.7896 55.5579 25.9201C55.3262 26.123 55.1235 26.3405 54.9353 26.5869C54.6602 26.9783 54.2693 27.2828 53.7192 27.2393C53.5744 27.2248 53.4151 27.2248 53.2704 27.2393C52.9518 27.2538 52.6912 27.1233 52.4741 26.9204C52.2569 26.7174 52.0108 26.5289 51.9384 26.2245C51.9094 26.1085 51.8515 25.9926 51.837 25.8766C51.7646 25.3547 51.9094 24.8908 52.1556 24.4414C52.5465 23.7021 52.9084 22.9337 53.3283 22.2089C53.6902 21.5855 53.9943 20.9332 54.3273 20.2953C54.7326 19.4835 55.1815 18.6861 55.6013 17.8743C55.9488 17.2075 56.2818 16.5551 56.6293 15.8883C57.0491 15.0909 57.469 14.3081 57.8744 13.5108C58.1495 12.9889 58.3956 12.4525 58.6707 11.9306C59.1629 10.9738 59.6697 10.017 60.1619 9.06024C60.3936 8.62534 60.6107 8.17594 60.8424 7.74103C61.3491 6.76974 61.8558 5.81295 62.3481 4.84166C62.5653 4.42125 62.7824 3.98635 62.9996 3.55144C63.3181 2.91358 63.738 2.34821 64.3461 1.94229C64.6211 1.75384 64.9107 1.56538 65.2147 1.43491C65.4609 1.31893 65.7215 1.27544 65.9821 1.20296C66.2137 1.14497 66.4454 1.07248 66.6625 1.0145C69.9925 1 73.3224 1 76.6669 1Z" stroke="#003DA5" stroke-width="2"/>
<path d="M53.6753 40.9966V42.2144C53.6753 42.4028 53.6898 42.6058 53.574 42.7797C53.5305 42.8377 53.545 42.9392 53.545 43.0117C53.5305 43.2291 53.5305 43.4321 53.4292 43.6496C53.3134 43.896 53.3134 44.2004 53.241 44.4759C53.1541 44.8093 53.0528 45.1282 52.9225 45.4472C52.7198 45.9401 52.4736 46.433 52.242 46.9113C52.0248 47.3897 51.7353 47.8246 51.4312 48.2451C50.91 49.0134 50.2875 49.7092 49.607 50.3471C49.2161 50.7095 48.7817 51.0285 48.3474 51.3474C47.7248 51.7823 47.0733 52.1882 46.3929 52.5216C46.0743 52.6811 45.7269 52.7826 45.3939 52.913C45.0319 53.0435 44.6845 53.1885 44.3225 53.3045C44.0909 53.3769 43.8592 53.4204 43.6276 53.4494C43.1353 53.5219 42.643 53.6959 42.1363 53.6379C41.9915 53.6234 41.8323 53.6959 41.673 53.7249C41.5138 53.7394 41.3545 53.7683 41.1952 53.7539C40.8333 53.7394 40.4713 53.7973 40.0949 53.6524C39.8777 53.5654 39.6171 53.6379 39.371 53.6089C39.1973 53.5944 39.0091 53.5364 38.8353 53.5074C38.7919 53.4929 38.7485 53.4784 38.705 53.4784C38.2852 53.4639 37.9087 53.3045 37.5033 53.2175C36.9966 53.116 36.5188 52.9275 36.0555 52.7246C35.4619 52.4636 34.8539 52.1882 34.3182 51.8113C33.9852 51.5648 33.6232 51.3474 33.2758 51.1299C33.2323 51.1009 33.2034 51.0719 33.1599 51.0429C32.5663 50.4776 31.8569 50.0137 31.3936 49.3178C31.1475 48.9554 30.829 48.6655 30.5684 48.3175C30.2933 47.9261 30.0616 47.5057 29.8155 47.0998C29.3956 46.4329 29.1495 45.6791 28.86 44.9543C28.7586 44.7078 28.7152 44.4324 28.6573 44.1569C28.5704 43.838 28.498 43.5191 28.4256 43.2002C28.4111 43.1567 28.3967 43.1132 28.3967 43.0697C28.3967 42.4028 28.165 41.7505 28.2374 41.0691C28.2664 40.7937 28.194 40.5037 28.2519 40.2428C28.3532 39.6919 28.3243 39.1265 28.5125 38.5757C28.5849 38.3582 28.6138 38.1408 28.6573 37.9088C28.8455 36.952 29.2219 36.0822 29.6418 35.2124C29.9313 34.618 30.2643 34.0816 30.6408 33.5453C31.2778 32.6465 32.0451 31.8491 32.8849 31.1533C33.7391 30.4429 34.6801 29.8631 35.6936 29.4137C36.2438 29.1672 36.7939 28.9643 37.3586 28.7468C37.6481 28.6453 37.9666 28.6163 38.2562 28.5438C38.6326 28.4714 39.0091 28.3844 39.3855 28.3119C39.5447 28.2829 39.704 28.2684 39.8633 28.2684C40.5872 28.2684 41.3255 28.2539 42.0494 28.2684C42.2521 28.2684 42.4548 28.3409 42.6575 28.3844C42.6865 28.3844 42.7299 28.3989 42.7589 28.3989C43.1353 28.4569 43.5117 28.4714 43.8737 28.5583C44.308 28.6598 44.7134 28.8193 45.1333 28.9498C45.4807 29.0657 45.8282 29.1527 46.1467 29.3122C46.6245 29.5441 47.0878 29.7906 47.5511 30.066C48.1881 30.4429 48.7817 30.8778 49.3319 31.3852C49.6649 31.6897 50.0413 31.9651 50.3309 32.3275C50.6928 32.7624 51.0548 33.1828 51.3733 33.6322C51.7932 34.2411 52.1986 34.8645 52.4881 35.5458C52.6908 36.0097 52.908 36.4591 53.0383 36.9375C53.1541 37.3724 53.3423 37.7783 53.3713 38.2567C53.3858 38.6191 53.5305 38.9671 53.6029 39.315C53.6319 39.431 53.6319 39.5469 53.6319 39.6629C53.6753 40.1123 53.6753 40.5472 53.6753 40.9966Z" stroke="#003DA5" stroke-width="2"/>
<path d="M72.9604 21.0346H73.221C73.7567 20.9911 74.2489 21.136 74.7122 21.3535C75.2479 21.5999 75.7691 21.8899 76.16 22.3538C76.5075 22.7597 76.826 23.1801 77.0287 23.702C77.1735 24.0644 77.3038 24.4268 77.3038 24.8182C77.3038 25.0067 77.4051 25.1952 77.4051 25.3836C77.4051 25.5431 77.3472 25.7171 77.3183 25.891C77.3038 25.949 77.2893 26.007 77.2893 26.065C77.2748 26.7028 76.9997 27.2392 76.6812 27.7611C76.5075 28.051 76.2758 28.3265 76.0297 28.5584C75.6388 28.9498 75.161 29.2253 74.6688 29.4282C74.2344 29.6167 73.7711 29.7327 73.3078 29.8921C72.9604 30.0081 72.6129 30.1531 72.2654 30.2691C71.889 30.385 71.5126 30.4865 71.1217 30.6025C70.7742 30.704 70.4267 30.8199 70.0937 30.9214C69.8621 30.9939 69.6449 31.0954 69.4277 31.1679C68.8776 31.3563 68.3129 31.5448 67.7627 31.7187C67.4008 31.8347 67.0388 31.9217 66.6914 32.0377C66.1702 32.2116 65.6345 32.3856 65.1133 32.5596C64.9251 32.6175 64.7513 32.6755 64.5631 32.7335C64.0419 32.893 63.5207 33.038 62.9995 33.2119C62.4927 33.3714 62.0005 33.5743 61.4938 33.7483C61.1318 33.8643 60.7554 33.9658 60.3789 34.0672C60.2052 34.1252 60.017 34.1542 59.8577 34.2412C59.5103 34.4297 59.1194 34.4007 58.7719 34.3282C58.2507 34.1977 57.8163 33.8933 57.5847 33.3569C57.4399 33.009 57.3965 32.661 57.4544 32.3131C57.5268 31.8782 57.7874 31.5158 58.1349 31.2403C58.4678 30.9794 58.7864 30.7185 59.1338 30.472C59.655 30.0806 60.2052 29.6892 60.7264 29.2978C61.0015 29.0948 61.2476 28.8629 61.5227 28.6454C61.8702 28.37 62.2321 28.109 62.5941 27.8481C62.8113 27.6886 63.0284 27.5147 63.2311 27.3552C63.5496 27.1087 63.8392 26.8188 64.1722 26.6014C64.6934 26.2679 65.1422 25.8185 65.6634 25.4851C65.9819 25.2676 66.2715 24.9922 66.5755 24.7603C66.8796 24.5283 67.1981 24.3109 67.5021 24.0789C67.5745 24.0209 67.6324 23.9484 67.7048 23.9049L68.7907 23.0786C69.0368 22.8902 69.2974 22.7017 69.5435 22.4988C70.0213 22.0783 70.5136 21.7159 71.0927 21.4405C71.3099 21.339 71.5705 21.31 71.7876 21.194C72.222 20.9766 72.6129 21.0491 72.9604 21.0346Z" stroke="#003DA5" stroke-width="2"/>
<path d="M48.7529 1.89868H49.2452C50.1139 1.94217 50.8522 2.2901 51.5038 2.84098C51.663 2.98594 51.8078 3.14541 51.967 3.30487C52.3724 3.71079 52.633 4.20368 52.8502 4.74006C53.1398 5.43591 53.1398 6.13176 53.0819 6.82761C53.0529 7.14654 52.8792 7.46547 52.7633 7.7844C52.6475 8.07433 52.5027 8.36427 52.3869 8.65421C52.2277 9.07462 52.0829 9.49503 51.9091 9.90094C51.7354 10.3213 51.5472 10.7273 51.3734 11.1477C51.2142 11.5536 51.0694 11.974 50.9102 12.3799C50.7364 12.8293 50.5337 13.2787 50.3455 13.7281C50.1139 14.2935 49.8388 14.8299 49.6506 15.4097C49.5058 15.8301 49.332 16.2361 49.1728 16.642C48.9701 17.2073 48.7095 17.7437 48.4778 18.2946C48.2172 18.9615 47.9711 19.6283 47.7105 20.2952C47.5512 20.6866 47.363 21.078 47.1893 21.4694C47.0735 21.7304 46.9721 21.9913 46.8708 22.2522C46.697 22.6582 46.364 22.8756 45.9876 23.0496C45.8284 23.1221 45.6691 23.18 45.4954 23.1945C44.8149 23.2525 43.9896 22.8176 43.729 22.1073C43.5698 21.6724 43.454 21.2085 43.6422 20.7446C43.6856 20.6576 43.6711 20.5416 43.6711 20.4401C43.6856 19.6718 43.6856 18.9035 43.7001 18.1496C43.7001 17.9612 43.758 17.7872 43.787 17.5988C43.8014 17.4828 43.8304 17.3668 43.8304 17.2653C43.8304 16.6565 43.8304 16.0331 43.8449 15.4242C43.8593 15.0908 43.9173 14.7574 43.9607 14.4384C43.9752 14.337 43.9752 14.2355 43.9752 14.1195C43.9897 13.4092 43.9173 12.6988 44.0186 12.003C44.1779 10.9447 44.0041 9.87194 44.1634 8.82817C44.2937 7.85688 44.2068 6.88559 44.2937 5.9288C44.3226 5.68236 44.395 5.43591 44.4674 5.20396C44.5398 4.95751 44.6267 4.71107 44.728 4.46462C44.8004 4.30516 44.9018 4.17469 44.9742 4.01522C45.3361 3.34837 45.8863 2.86997 46.5378 2.47855C46.9287 2.24661 47.3341 2.10164 47.7539 1.97117C48.0435 1.88418 48.391 1.95667 48.724 1.95667C48.7529 1.91318 48.7529 1.89868 48.7529 1.89868Z" stroke="#003DA5" stroke-width="2"/>
</svg>
