<svg width="38" height="63" viewBox="0 0 38 63" fill="none" xmlns="http://www.w3.org/2000/svg">
<ellipse cx="19.4403" cy="18.1824" rx="16.0877" ry="16.1167" fill="white"/>
<path d="M28.6246 55.1867C29.7502 52.7796 30.3937 49.9968 30.4883 47.1265C30.583 44.2563 30.1254 41.403 29.1629 38.8621C28.2005 36.3212 26.7682 34.1851 25.0144 32.6751C23.2606 31.165 21.249 30.3359 19.1881 30.2737C17.1271 30.2114 15.0917 30.9182 13.2926 32.321C11.4935 33.7237 9.99612 35.7712 8.9556 38.2516C7.91508 40.732 7.36922 43.555 7.37455 46.4283C7.37988 49.3016 7.93622 52.1206 8.98594 54.5935L18.9375 46.3866L28.6246 55.1867Z" fill="#FFCD00"/>
<path d="M18.9584 0.0510864C15.1868 0.0595942 11.5063 1.2126 8.40181 3.35817C5.29732 5.50375 2.91453 8.54122 1.56738 12.0704C0.22024 15.5995 -0.0280348 19.4547 0.855271 23.128C1.73858 26.8013 3.71201 30.1203 6.51556 32.6478V58.2223L18.9584 49.9121L31.4012 58.2223V32.6478C34.2047 30.1203 36.1781 26.8013 37.0614 23.128C37.9447 19.4547 37.6965 15.5995 36.3493 12.0704C35.0022 8.54122 32.6194 5.50375 29.5149 3.35817C26.4104 1.2126 22.7299 0.0595942 18.9584 0.0510864ZM27.2536 50.4523L21.2603 46.4634L18.9584 44.926L16.6564 46.4634L10.6632 50.4523V35.4732C13.2357 36.7735 16.0769 37.4509 18.9584 37.4509C21.8398 37.4509 24.681 36.7735 27.2536 35.4732V50.4523ZM29.0992 29.1367C26.7009 31.4824 23.5662 32.9244 20.2272 33.2179C16.8882 33.5114 13.5508 32.6383 10.7813 30.7469C8.01186 28.8554 5.98108 26.0621 5.0337 22.8412C4.08633 19.6203 4.28072 16.1702 5.58389 13.0765C6.88707 9.98284 9.21871 7.43627 12.183 5.86906C15.1474 4.30186 18.5617 3.81059 21.8465 4.47865C25.1313 5.14671 28.0841 6.93293 30.2037 9.53411C32.3234 12.1353 33.4792 15.3911 33.475 18.749C33.4725 20.6851 33.0842 22.6012 32.3328 24.3849C31.5815 26.1687 30.4821 27.7842 29.0992 29.1367Z" fill="white"/>
<path d="M18.8538 33.6312H18.854C20.933 33.6322 22.8802 33.2377 24.7007 32.4502C26.5311 31.6584 28.1183 30.5868 29.467 29.2357C30.8146 27.8847 31.8838 26.2945 32.6743 24.4606C33.4605 22.6364 33.8549 20.6853 33.8549 18.6021V18.6019C33.8559 16.5188 33.462 14.5677 32.6758 12.7437C31.8854 10.9098 30.8156 9.31959 29.467 7.9685C28.1183 6.61846 26.5311 5.54735 24.7007 4.7556C22.8802 3.96812 20.933 3.57303 18.854 3.573L18.8538 33.6312ZM18.8538 33.6312C16.7747 33.6312 14.8274 33.2361 13.0069 32.4486M18.8538 33.6312L13.0069 32.4486M13.0069 32.4486C11.1764 31.6569 9.58914 30.5857 8.24048 29.2356M13.0069 32.4486L8.24048 29.2356M8.24048 29.2356C6.89194 27.8846 5.82275 26.2945 5.03341 24.4608M8.24048 29.2356L5.03341 24.4608M5.03341 24.4608C4.24818 22.6366 3.85369 20.6854 3.85266 18.6021L5.03341 24.4608ZM28.4592 19.2646L28.4593 19.2647L11.7233 15.4963C11.5166 15.7033 11.3616 15.9363 11.2582 16.1951C11.1549 16.4539 11.1032 16.7386 11.1032 17.0492V24.8138C11.1032 25.6679 11.407 26.3993 12.0147 27.008C12.6223 27.6168 13.3519 27.9206 14.2035 27.9196V28.4196H14.2041H22.7291C23.2565 28.4196 23.7513 28.286 24.2039 28.0199C24.6683 27.7469 25.0089 27.3606 25.2063 26.8684L28.4592 19.2646ZM18.4855 7.39354L11.3617 15.1508L26.6044 15.4963V14.9963H26.6036C26.6035 14.9963 26.6033 14.9963 26.6032 14.9963L20.0696 14.9963L20.8954 10.3084C20.9614 9.97297 20.9459 9.64054 20.8396 9.3209C20.7365 9.01119 20.5647 8.73801 20.3315 8.50436L19.2077 7.3785L18.8387 7.00891L18.4855 7.39354ZM3.85266 18.6019C3.85269 16.5188 4.24715 14.5677 5.03332 12.7437C5.82373 10.9098 6.89301 9.31957 8.24061 7.9685C9.58922 6.61746 11.1764 5.54639 13.0066 4.75569C14.8273 3.96916 16.7746 3.57403 18.8538 3.573L3.85266 18.6019Z" fill="#FFCD00" stroke="#FFCD00"/>
</svg>
