<svg width="19" height="22" viewBox="0 0 19 22" fill="none" xmlns="http://www.w3.org/2000/svg">
<path fill-rule="evenodd" clip-rule="evenodd" d="M0.849609 12.4297C0.849609 8.83455 0.849609 7.03698 1.7063 5.74224C2.08886 5.16408 2.584 4.66893 3.16216 4.28638C4.4569 3.42969 6.25447 3.42969 9.84961 3.42969C13.4447 3.42969 15.2423 3.42969 16.5371 4.28638C17.1152 4.66893 17.6104 5.16408 17.9929 5.74224C18.8496 7.03698 18.8496 8.83455 18.8496 12.4297C18.8496 16.0248 18.8496 17.8224 17.9929 19.1171C17.6104 19.6953 17.1152 20.1904 16.5371 20.573C15.2423 21.4297 13.4447 21.4297 9.84961 21.4297C6.25447 21.4297 4.4569 21.4297 3.16216 20.573C2.584 20.1904 2.08886 19.6953 1.7063 19.1171C0.849609 17.8224 0.849609 16.0248 0.849609 12.4297ZM14.5092 12.4297C14.5092 15.0031 12.4231 17.0891 9.84981 17.0891C7.27649 17.0891 5.1904 15.0031 5.1904 12.4297C5.1904 9.85641 7.27649 7.77032 9.84981 7.77032C12.4231 7.77032 14.5092 9.85641 14.5092 12.4297ZM9.84981 15.5127C11.5525 15.5127 12.9328 14.1324 12.9328 12.4297C12.9328 10.727 11.5525 9.34673 9.84981 9.34673C8.14712 9.34673 6.76681 10.727 6.76681 12.4297C6.76681 14.1324 8.14712 15.5127 9.84981 15.5127ZM14.6932 8.63105C15.2979 8.63105 15.7881 8.14088 15.7881 7.53623C15.7881 6.93158 15.2979 6.44141 14.6932 6.44141C14.0886 6.44141 13.5984 6.93158 13.5984 7.53623C13.5984 8.14088 14.0886 8.63105 14.6932 8.63105Z" fill="#FFCD00"/>
</svg>
