<svg width="29" height="52" viewBox="0 0 29 52" fill="none" xmlns="http://www.w3.org/2000/svg">
<path d="M0.462542 26C0.462542 25.3889 0.550375 24.8159 0.726042 24.2812C0.901709 23.7465 1.20346 23.25 1.63129 22.7916L21.2875 1.59372C22.0667 0.753443 23.0414 0.353165 24.2115 0.392887C25.3817 0.432609 26.355 0.87108 27.1313 1.7083C27.9105 2.54858 28.3 3.61803 28.3 4.91664C28.3 6.21525 27.9105 7.28469 27.1313 8.12497L10.5563 26L27.2375 43.9896C28.0167 44.8298 28.3893 45.8809 28.3553 47.1429C28.3213 48.4048 27.9133 49.4544 27.1313 50.2916C26.3521 51.1319 25.3605 51.5521 24.1563 51.5521C22.9521 51.5521 21.9605 51.1319 21.1813 50.2916L1.63129 29.2083C1.20629 28.75 0.904543 28.2534 0.726042 27.7187C0.547543 27.184 0.459707 26.6111 0.462542 26Z" fill="#D9D9D9"/>
</svg>
