<svg width="19" height="21" viewBox="0 0 19 21" fill="none" xmlns="http://www.w3.org/2000/svg">
<path d="M0.849609 5.34876C0.849609 4.77155 1.05232 4.29536 1.45772 3.92019C1.86312 3.54501 2.39016 3.35742 3.0388 3.35742C3.67587 3.35742 4.1913 3.54211 4.58513 3.91153C4.99053 4.29249 5.19324 4.78887 5.19324 5.40071C5.19324 5.95482 4.99633 6.41657 4.6025 6.78599C4.19711 7.16694 3.66428 7.35742 3.00405 7.35742H2.98668C2.3496 7.35742 1.83417 7.16694 1.44034 6.78599C1.04651 6.40504 0.849609 5.92596 0.849609 5.34876ZM1.07548 20.5003V8.93318H4.93262V20.5003H1.07548ZM7.06969 20.5003H10.9268V14.0414C10.9268 13.6373 10.9732 13.3257 11.0658 13.1063C11.228 12.7138 11.4741 12.3819 11.8042 12.1107C12.1344 11.8394 12.5484 11.7037 13.0465 11.7037C14.3438 11.7037 14.9925 12.5753 14.9925 14.3185V20.5003H18.8496V13.8682C18.8496 12.1597 18.4442 10.8639 17.6334 9.9808C16.8226 9.09768 15.7512 8.65612 14.4191 8.65612C12.9249 8.65612 11.7608 9.29681 10.9268 10.5782V10.6128H10.9095L10.9268 10.5782V8.93318H7.06969C7.09285 9.30258 7.10444 10.4512 7.10444 12.3791C7.10444 14.3069 7.09285 17.014 7.06969 20.5003Z" fill="#FFCD00"/>
</svg>
