<svg width="29" height="52" viewBox="0 0 29 52" fill="none" xmlns="http://www.w3.org/2000/svg">
<path d="M28.5375 26C28.5375 26.6111 28.4497 27.1841 28.274 27.7188C28.0983 28.2535 27.7966 28.75 27.3688 29.2084L7.71251 50.4063C6.93334 51.2466 5.95867 51.6468 4.78851 51.6071C3.61834 51.5674 2.64509 51.1289 1.86876 50.2917C1.08959 49.4514 0.700004 48.382 0.700004 47.0834C0.700004 45.7848 1.08959 44.7153 1.86876 43.875L18.4438 26L1.7625 8.01044C0.983338 7.17017 0.610756 6.11905 0.644756 4.85711C0.678756 3.59517 1.08676 2.54559 1.86876 1.70837C2.64792 0.868088 3.63959 0.447941 4.84376 0.447941C6.04792 0.447941 7.03959 0.868088 7.81876 1.70837L27.3688 22.7917C27.7938 23.25 28.0955 23.7466 28.274 24.2813C28.4525 24.816 28.5403 25.3889 28.5375 26Z" fill="#D9D9D9"/>
</svg>
