<svg width="19" height="18" viewBox="0 0 19 18" fill="none" xmlns="http://www.w3.org/2000/svg">
<path d="M12.8767 3.13019V3.12695H13.7207L14.029 3.18855C14.2346 3.22853 14.4213 3.28093 14.589 3.34577C14.7567 3.4106 14.9191 3.48624 15.0759 3.57268C15.2328 3.65912 15.3751 3.7472 15.5028 3.83688C15.6294 3.92549 15.743 4.0195 15.8437 4.11891C15.9432 4.2194 16.0985 4.24533 16.3095 4.19671C16.5205 4.14808 16.7477 4.08054 16.9912 3.9941C17.2346 3.90766 17.4754 3.81041 17.7135 3.70235C17.9515 3.59429 18.0965 3.52568 18.1485 3.4965C18.1993 3.46626 18.2264 3.45005 18.2296 3.44788L18.2328 3.44302L18.2491 3.43491L18.2653 3.42681L18.2815 3.4187L18.2978 3.4106L18.301 3.40574L18.3059 3.4025L18.3108 3.39925L18.314 3.39439L18.3302 3.38953L18.3465 3.38629L18.3432 3.4106L18.3383 3.43491L18.3302 3.45923L18.3221 3.48354L18.314 3.49975L18.3059 3.51595L18.2978 3.54027C18.2924 3.55648 18.287 3.57808 18.2815 3.6051C18.2761 3.63212 18.2247 3.74017 18.1273 3.92927C18.03 4.11837 17.9082 4.31017 17.7621 4.50467C17.6161 4.69917 17.4851 4.84611 17.3694 4.94554C17.2525 5.04603 17.1751 5.11626 17.1373 5.15625C17.0994 5.1973 17.0534 5.23512 16.9993 5.2697L16.9181 5.32319L16.9019 5.3313L16.8857 5.3394L16.8824 5.34426L16.8776 5.34751L16.8727 5.35075L16.8694 5.35561L16.8532 5.36371L16.837 5.37182L16.8338 5.37668L16.8289 5.37992L16.824 5.38316L16.8208 5.38803L16.8175 5.39289L16.8126 5.39613L16.8078 5.39937L16.8045 5.40423H16.8857L17.3401 5.30698C17.6431 5.24215 17.9326 5.16382 18.2085 5.07196L18.6467 4.92609L18.6954 4.90988L18.7198 4.90177L18.736 4.89367L18.7522 4.88557L18.7685 4.87746L18.7847 4.86936L18.8171 4.86449L18.8496 4.86125V4.89367L18.8415 4.89691L18.8334 4.90177L18.8301 4.90664L18.8253 4.90988L18.8204 4.91312L18.8171 4.91798L18.8139 4.92284L18.809 4.92609L18.8042 4.92933L18.8009 4.93419L18.7977 4.93905L18.7928 4.94229L18.7847 4.9585L18.7766 4.97471L18.7717 4.97795C18.7695 4.98119 18.7008 5.07303 18.5656 5.2535C18.4303 5.43503 18.3573 5.52687 18.3465 5.52904C18.3356 5.53228 18.3205 5.54849 18.301 5.57766C18.2826 5.60791 18.1679 5.7284 17.9569 5.93911C17.7459 6.14982 17.5393 6.33729 17.3369 6.50154C17.1335 6.66687 17.0307 6.87001 17.0285 7.11098C17.0253 7.35086 17.0128 7.6221 16.9912 7.92464C16.9695 8.2272 16.929 8.55406 16.8694 8.90525C16.8099 9.25644 16.718 9.65354 16.5935 10.0966C16.4691 10.5396 16.3176 10.9718 16.1391 11.3932C15.9605 11.8147 15.7739 12.1929 15.5791 12.5278C15.3843 12.8628 15.2058 13.1465 15.0435 13.3788C14.8812 13.6111 14.7162 13.8299 14.5484 14.0352C14.3807 14.2405 14.1687 14.4718 13.9122 14.7289C13.6547 14.985 13.514 15.1255 13.4902 15.1504C13.4653 15.1741 13.3593 15.2627 13.1721 15.4162C12.986 15.5707 12.7858 15.7252 12.5715 15.8797C12.3584 16.0332 12.1625 16.1612 11.984 16.2639C11.8054 16.3665 11.5901 16.4838 11.338 16.6156C11.087 16.7485 10.8153 16.8717 10.5232 16.9851C10.231 17.0986 9.92265 17.204 9.59803 17.3012C9.27341 17.3985 8.95962 17.4741 8.65664 17.5281C8.35368 17.5821 8.01012 17.6281 7.62598 17.6659L7.04979 17.7226V17.7307H5.99479V17.7226L5.85682 17.7145C5.76486 17.7091 5.68911 17.7037 5.62959 17.6983C5.57009 17.6929 5.34555 17.6632 4.95601 17.6092C4.56647 17.5551 4.2608 17.5011 4.03897 17.4471C3.81716 17.3931 3.48712 17.2904 3.04889 17.1391C2.61066 16.9878 2.23572 16.8349 1.92409 16.6804C1.61355 16.527 1.41878 16.4297 1.33978 16.3887C1.26187 16.3487 1.17423 16.299 1.07684 16.2396L0.930764 16.1504L0.927534 16.1455L0.922648 16.1423L0.917779 16.1391L0.914533 16.1342L0.898302 16.1261L0.882071 16.118L0.878841 16.1131L0.873956 16.1099L0.869086 16.1066L0.86584 16.1018L0.86261 16.0969L0.857725 16.0937H0.849609V16.0613L0.86584 16.0645L0.882071 16.0694L0.95511 16.0775C1.0038 16.0829 1.13636 16.091 1.35277 16.1018C1.56919 16.1126 1.79911 16.1126 2.04258 16.1018C2.28604 16.091 2.53492 16.0667 2.78919 16.0288C3.04348 15.991 3.34375 15.9262 3.69001 15.8343C4.03627 15.7425 4.3544 15.6334 4.6444 15.5069C4.9333 15.3794 5.13888 15.2843 5.26117 15.2217C5.38235 15.1601 5.56738 15.0455 5.81625 14.878L6.18956 14.6268L6.1928 14.622L6.19767 14.6187L6.20256 14.6155L6.20579 14.6106L6.20903 14.6057L6.2139 14.6025L6.21879 14.5993L6.22202 14.5944L6.23825 14.5895L6.25448 14.5863L6.25772 14.5701L6.26259 14.5539L6.26748 14.5506L6.27071 14.5458L6.14086 14.5377C6.0543 14.5323 5.97044 14.5269 5.88928 14.5215C5.80813 14.5161 5.68099 14.4918 5.50786 14.4485C5.33474 14.4053 5.14809 14.3405 4.9479 14.254C4.74772 14.1676 4.55295 14.0649 4.36359 13.9461C4.17424 13.8272 4.03735 13.7283 3.95295 13.6495C3.86963 13.5716 3.76142 13.4614 3.62833 13.3188C3.49632 13.1751 3.38162 13.0276 3.28424 12.8763C3.18685 12.725 3.0938 12.5505 3.00508 12.3528L2.87035 12.0578L2.86223 12.0335L2.85412 12.0092L2.84925 11.993L2.846 11.9767L2.87035 11.98L2.8947 11.9848L3.07323 12.0092C3.19227 12.0254 3.37893 12.0308 3.6332 12.0254C3.88749 12.02 4.06332 12.0092 4.1607 11.993C4.25809 11.9767 4.3176 11.9659 4.33924 11.9605L4.3717 11.9524L4.41228 11.9443L4.45286 11.9362L4.4561 11.9314L4.46097 11.9281L4.46586 11.9249L4.46909 11.92L4.43662 11.9119L4.40416 11.9038L4.3717 11.8957L4.33924 11.8876L4.30678 11.8795C4.28514 11.8741 4.24728 11.8633 4.19316 11.8471C4.13906 11.8309 3.99299 11.7714 3.75493 11.6688C3.51689 11.5661 3.32752 11.4662 3.18685 11.3689C3.04583 11.2714 2.91137 11.1647 2.78433 11.0496C2.65772 10.9329 2.51869 10.7827 2.36719 10.599C2.21571 10.4153 2.08046 10.2019 1.96142 9.9588C1.8424 9.71567 1.75313 9.48336 1.69361 9.26184C1.63433 9.04162 1.59522 8.81648 1.57677 8.58919L1.54754 8.24881L1.56377 8.25205L1.58 8.25691L1.59623 8.26502L1.61246 8.27312L1.62869 8.28123L1.64492 8.28933L1.8965 8.40279C2.06423 8.47843 2.27252 8.54327 2.52139 8.59729C2.77027 8.65131 2.91904 8.68104 2.96773 8.68644L3.04077 8.69454H3.18685L3.18362 8.68968L3.17873 8.68644L3.17387 8.6832L3.17062 8.67833L3.16739 8.67347L3.1625 8.67023L3.15763 8.66699L3.15439 8.66212L3.13816 8.65402L3.12193 8.64592L3.1187 8.64105L3.11381 8.63781L3.10894 8.63457L3.1057 8.62971L3.08947 8.6216L3.07323 8.6135L3.07 8.60864C3.06676 8.60647 3.02022 8.57189 2.9304 8.5049C2.84167 8.43683 2.74862 8.34877 2.65123 8.24071C2.55385 8.13264 2.45646 8.01919 2.35908 7.90033C2.26151 7.7812 2.17461 7.65375 2.09938 7.51943C2.02365 7.38437 1.94357 7.21254 1.85917 7.004C1.77585 6.79654 1.71255 6.58745 1.66927 6.37674C1.626 6.16603 1.60165 5.95803 1.59623 5.75272C1.59082 5.5474 1.59623 5.37182 1.61246 5.22594C1.62869 5.08007 1.66115 4.91528 1.70984 4.73159C1.75854 4.5479 1.82888 4.35339 1.92084 4.14808L2.05881 3.84012L2.06692 3.81581L2.07504 3.7915L2.07992 3.78826L2.08315 3.78339L2.0864 3.77853L2.09127 3.77529L2.09615 3.77853L2.09938 3.78339L2.10263 3.78826L2.1075 3.7915L2.11238 3.79474L2.11561 3.7996L2.11886 3.80446L2.12373 3.80771L2.13185 3.82391L2.13996 3.84012L2.14485 3.84336L2.14808 3.84823L2.36719 4.09135C2.51327 4.25344 2.6864 4.43444 2.88658 4.63434C3.08677 4.83423 3.19768 4.93797 3.21931 4.94554C3.24096 4.95418 3.268 4.97902 3.30047 5.0201C3.33293 5.06008 3.44114 5.15571 3.62508 5.30698C3.80904 5.45826 4.0498 5.63386 4.34736 5.83376C4.64493 6.03366 4.97495 6.23086 5.33744 6.42536C5.69994 6.61987 6.08948 6.79545 6.50606 6.95214C6.92265 7.10882 7.21481 7.21147 7.38252 7.2601C7.55025 7.30872 7.83699 7.37085 8.24276 7.44649C8.64853 7.52214 8.95422 7.57076 9.1598 7.59237C9.36539 7.61398 9.50607 7.62641 9.5818 7.62965L9.69542 7.63289L9.69219 7.60858L9.6873 7.58427L9.65484 7.38166C9.6332 7.2466 9.62238 7.05749 9.62238 6.81437C9.62238 6.57124 9.64132 6.34703 9.67919 6.14172C9.71707 5.93641 9.77388 5.7284 9.84961 5.51769C9.92536 5.30698 9.99949 5.13787 10.072 5.01037C10.1456 4.88394 10.2419 4.73969 10.3609 4.57761C10.4799 4.41552 10.6341 4.24804 10.8235 4.07515C11.0128 3.90225 11.2292 3.74827 11.4727 3.61321C11.7162 3.47814 11.9407 3.37548 12.1463 3.30525C12.3519 3.23501 12.525 3.18908 12.6657 3.16747C12.8063 3.14587 12.8767 3.13344 12.8767 3.13019Z" fill="#FFCD00"/>
</svg>
