<svg width="21" height="18" viewBox="0 0 21 18" fill="none" xmlns="http://www.w3.org/2000/svg">
<path d="M11.2879 17.4089L7.22568 17.333C5.91044 17.3065 4.59191 17.3593 3.30246 17.0852C1.34089 16.6757 1.20193 14.6678 1.05652 12.9836C0.856153 10.6157 0.933719 8.20492 1.31183 5.85684C1.52528 4.53932 2.36532 3.75315 3.6644 3.6676C8.04975 3.35713 12.4643 3.39392 16.8399 3.53877C17.302 3.55205 17.7673 3.62462 18.223 3.70724C20.4723 4.11015 20.5271 6.38555 20.673 8.30101C20.8184 10.2362 20.757 12.1814 20.479 14.1034C20.2561 15.6948 19.8295 17.0294 18.0291 17.1582C15.7733 17.3267 13.5693 17.4623 11.3072 17.4191C11.3073 17.4089 11.2943 17.4089 11.2879 17.4089ZM8.8997 13.3799C10.5996 12.3825 12.2671 11.4017 13.9573 10.411C12.2542 9.41357 10.5899 8.43278 8.8997 7.44206V13.3799Z" fill="#FFCD00"/>
</svg>
